<svg width="655" height="1253" viewBox="0 0 655 1253" fill="none" xmlns="http://www.w3.org/2000/svg">
<g opacity="0.4">
<path d="M528.289 155.64C431.829 35.0952 271.367 -11.4745 116.289 3.37977C72.8521 7.54042 32.6981 15.033 -4.99986 24.6747L-4.99987 1252.63C258.328 1188.8 514.354 1049.08 613.5 805.5C691.956 612.755 656.21 315.499 528.289 155.64Z" fill="#C4C4C4"/>
<path d="M528.289 155.64C431.829 35.0952 271.367 -11.4745 116.289 3.37977C72.8521 7.54042 32.6981 15.033 -4.99986 24.6747L-4.99987 1252.63C258.328 1188.8 514.354 1049.08 613.5 805.5C691.956 612.755 656.21 315.499 528.289 155.64Z" fill="url(#paint0_linear)"/>
</g>
<defs>
<linearGradient id="paint0_linear" x1="283.607" y1="1433.59" x2="-793.699" y2="-1315.55" gradientUnits="userSpaceOnUse">
<stop offset="0.0646296" stop-color="white"/>
<stop offset="0.733345" stop-color="#B0CFD5"/>
</linearGradient>
</defs>
</svg>
