<svg width="90" height="90" viewBox="0 0 90 90" fill="none" xmlns="http://www.w3.org/2000/svg">
<path d="M57.2196 48.3001L51.4725 45.7463C51.2039 45.6267 50.9757 45.4317 50.8156 45.1851C50.6556 44.9384 50.5705 44.6507 50.5707 44.3566V42.5899L50.7196 42.4713C51.6627 41.7252 52.4246 40.7753 52.9479 39.6927C53.4713 38.6101 53.7426 37.423 53.7415 36.2205V33.7642L53.9446 33.6521C54.2036 33.5089 54.4193 33.2987 54.5694 33.0436C54.7194 32.7885 54.7983 32.4978 54.7976 32.2018V31.9909C54.7952 29.8718 53.9521 27.8402 52.4534 26.3421C50.9548 24.8439 48.9229 24.0015 46.8038 23.9998H44.6943C42.5755 24.0018 40.544 24.8444 39.0456 26.3425C37.5472 27.8407 36.7043 29.872 36.7019 31.9909V33.9475C36.6971 34.206 36.752 34.4621 36.8622 34.696C36.9724 34.9299 37.135 35.1353 37.3374 35.2962C37.4048 35.346 37.4762 35.3902 37.551 35.4281L37.7593 35.5402V36.2139C37.7579 37.4164 38.0291 38.6036 38.5525 39.6863C39.0759 40.7689 39.8379 41.7188 40.7812 42.4647L40.9301 42.5833V44.3566C40.93 44.6508 40.8447 44.9386 40.6844 45.1852C40.5241 45.4319 40.2958 45.6267 40.027 45.7463L34.2786 48.3001C33.4267 48.6792 32.7029 49.297 32.1947 50.0787C31.6865 50.8604 31.4156 51.7727 31.4149 52.7051V65.8118C31.4149 65.9691 31.4774 66.12 31.5887 66.2313C31.6999 66.3426 31.8508 66.4051 32.0082 66.4051C32.1655 66.4051 32.3165 66.3426 32.4277 66.2313C32.539 66.12 32.6015 65.9691 32.6015 65.8118V52.7051C32.6025 52.5778 32.61 52.4506 32.6239 52.324L32.7109 51.5L33.2976 52.0854L35.9451 54.7342C36.185 54.9729 36.3752 55.2569 36.5046 55.5697C36.6341 55.8825 36.7002 56.2178 36.6992 56.5563V65.8118C36.6992 65.9691 36.7617 66.12 36.873 66.2313C36.9843 66.3426 37.1352 66.4051 37.2925 66.4051C37.4499 66.4051 37.6008 66.3426 37.7121 66.2313C37.8233 66.12 37.8858 65.9691 37.8858 65.8118V56.5563C37.8873 56.0617 37.7906 55.5718 37.6014 55.1149C37.4122 54.6579 37.1343 54.2431 36.7836 53.8943L33.6286 50.7379L33.3556 50.4637L33.6193 50.1842C33.943 49.8464 34.3295 49.575 34.7572 49.3852L40.4067 46.8801L40.6546 46.7707L40.8471 46.9619L45.1518 51.268V65.8118C45.1518 65.9691 45.2143 66.12 45.3256 66.2313C45.4369 66.3426 45.5878 66.4051 45.7451 66.4051C45.9025 66.4051 46.0534 66.3426 46.1647 66.2313C46.2759 66.12 46.3384 65.9691 46.3384 65.8118V51.2614L50.8357 46.7641L51.0849 46.8736L56.7331 49.3786C57.164 49.5696 57.5533 49.8433 57.8788 50.1842L58.1425 50.4637L57.867 50.7379L54.7146 53.8943C54.3639 54.2431 54.086 54.6579 53.8968 55.1149C53.7076 55.5718 53.6109 56.0617 53.6123 56.5563V65.8118C53.6123 65.9691 53.6748 66.12 53.7861 66.2313C53.8974 66.3426 54.0483 66.4051 54.2056 66.4051C54.363 66.4051 54.5139 66.3426 54.6252 66.2313C54.7364 66.12 54.7989 65.9691 54.7989 65.8118V56.5563C54.7982 56.2177 54.8646 55.8823 54.9943 55.5696C55.1239 55.2568 55.3143 54.9729 55.5544 54.7342L58.7859 51.4974L58.873 52.3214C58.8875 52.4479 58.895 52.5751 58.8954 52.7024V65.8091C58.8954 65.9665 58.9579 66.1174 59.0691 66.2287C59.1804 66.3399 59.3313 66.4025 59.4887 66.4025C59.646 66.4025 59.7969 66.3399 59.9082 66.2287C60.0195 66.1174 60.082 65.9665 60.082 65.8091V52.7037C60.0811 51.7717 59.8103 50.8599 59.3024 50.0784C58.7944 49.2969 58.071 48.6793 57.2196 48.3001ZM45.7491 50.1763L41.5762 46.0034L41.7331 45.7397C41.9821 45.3217 42.1142 44.8445 42.1154 44.358V43.3612L42.6639 43.5919C43.6411 44.001 44.6898 44.2116 45.7491 44.2116C46.8084 44.2116 47.8571 44.001 48.8343 43.5919L49.3827 43.3612V44.358C49.3838 44.8445 49.5159 45.3218 49.7651 45.7397L49.922 46.0034L45.7491 50.1763ZM45.7491 43.0237C43.945 43.0219 42.2152 42.3045 40.9395 41.0288C39.6638 39.753 38.9463 38.0233 38.9446 36.2192V35.5059L39.1937 35.407C39.815 35.1502 40.3835 34.781 40.8708 34.318C40.9312 34.266 40.9805 34.2024 41.0158 34.131C41.0511 34.0596 41.0716 33.9818 41.0762 33.9023C41.0807 33.8228 41.0693 33.7432 41.0424 33.6682C41.0156 33.5932 40.9739 33.5244 40.9199 33.4658C40.8658 33.4073 40.8006 33.3603 40.728 33.3275C40.6554 33.2947 40.577 33.2769 40.4973 33.2751C40.4177 33.2733 40.3385 33.2875 40.2645 33.3169C40.1905 33.3464 40.1232 33.3904 40.0666 33.4465C39.5234 33.9461 38.9736 34.2731 38.4304 34.4142C38.4001 34.4222 38.3692 34.4279 38.3381 34.4313L38.0744 34.4538L37.9531 34.2177C37.9128 34.1357 37.892 34.0455 37.8924 33.9541V31.9909C37.8945 30.1873 38.6117 28.4582 39.8868 27.1826C41.1619 25.907 42.8908 25.1892 44.6943 25.1864H46.8038C48.6079 25.1885 50.3374 25.906 51.6131 27.1817C52.8887 28.4573 53.6063 30.1869 53.6084 31.9909V32.2071C53.6095 32.3128 53.5739 32.4155 53.5078 32.498C53.4417 32.5804 53.3492 32.6374 53.2458 32.6593C52.1608 32.8798 51.0569 32.9942 49.9497 33.0008C46.0589 33.0008 43.9217 31.4437 42.9922 30.5155C42.9379 30.4572 42.8724 30.4105 42.7996 30.3781C42.7268 30.3456 42.6483 30.3282 42.5686 30.3268C42.4889 30.3254 42.4098 30.34 42.3359 30.3699C42.2621 30.3997 42.195 30.4441 42.1386 30.5005C42.0823 30.5568 42.0379 30.6239 42.008 30.6978C41.9782 30.7717 41.9635 30.8508 41.9649 30.9305C41.9663 31.0101 41.9838 31.0887 42.0162 31.1615C42.0486 31.2343 42.0954 31.2998 42.1537 31.3541C44.4807 33.6811 47.6912 34.1703 49.9695 34.1703C50.6838 34.1683 51.3975 34.1243 52.1067 34.0384L52.5483 33.9844V36.2192C52.5466 38.0224 51.8299 39.7513 50.5553 41.0269C49.2807 42.3025 47.5523 43.0205 45.7491 43.0237Z" fill="#93BD89"/>
<path d="M57.2196 48.3001L51.4725 45.7463C51.2039 45.6267 50.9757 45.4317 50.8156 45.1851C50.6556 44.9384 50.5705 44.6507 50.5707 44.3566V42.5899L50.7196 42.4713C51.6627 41.7252 52.4246 40.7753 52.9479 39.6927C53.4713 38.6101 53.7426 37.423 53.7415 36.2205V33.7642L53.9446 33.6521C54.2036 33.5089 54.4193 33.2987 54.5694 33.0436C54.7194 32.7885 54.7983 32.4978 54.7976 32.2018V31.9909C54.7952 29.8718 53.9521 27.8402 52.4534 26.3421C50.9548 24.8439 48.9229 24.0015 46.8038 23.9998H44.6943C42.5755 24.0018 40.544 24.8444 39.0456 26.3425C37.5472 27.8407 36.7043 29.872 36.7019 31.9909V33.9475C36.6971 34.206 36.752 34.4621 36.8622 34.696C36.9724 34.9299 37.135 35.1353 37.3374 35.2962C37.4048 35.346 37.4762 35.3902 37.551 35.4281L37.7593 35.5402V36.2139C37.7579 37.4164 38.0291 38.6036 38.5525 39.6863C39.0759 40.7689 39.8379 41.7188 40.7812 42.4647L40.9301 42.5833V44.3566C40.93 44.6508 40.8447 44.9386 40.6844 45.1852C40.5241 45.4319 40.2958 45.6267 40.027 45.7463L34.2786 48.3001C33.4267 48.6792 32.7029 49.297 32.1947 50.0787C31.6865 50.8604 31.4156 51.7727 31.4149 52.7051V65.8118C31.4149 65.9691 31.4774 66.12 31.5887 66.2313C31.6999 66.3426 31.8508 66.4051 32.0082 66.4051C32.1655 66.4051 32.3165 66.3426 32.4277 66.2313C32.539 66.12 32.6015 65.9691 32.6015 65.8118V52.7051C32.6025 52.5778 32.61 52.4506 32.6239 52.324L32.7109 51.5L33.2976 52.0854L35.9451 54.7342C36.185 54.9729 36.3752 55.2569 36.5046 55.5697C36.6341 55.8825 36.7002 56.2178 36.6992 56.5563V65.8118C36.6992 65.9691 36.7617 66.12 36.873 66.2313C36.9843 66.3426 37.1352 66.4051 37.2925 66.4051C37.4499 66.4051 37.6008 66.3426 37.7121 66.2313C37.8233 66.12 37.8858 65.9691 37.8858 65.8118V56.5563C37.8873 56.0617 37.7906 55.5718 37.6014 55.1149C37.4122 54.6579 37.1343 54.2431 36.7836 53.8943L33.6286 50.7379L33.3556 50.4637L33.6193 50.1842C33.943 49.8464 34.3295 49.575 34.7572 49.3852L40.4067 46.8801L40.6546 46.7707L40.8471 46.9619L45.1518 51.268V65.8118C45.1518 65.9691 45.2143 66.12 45.3256 66.2313C45.4369 66.3426 45.5878 66.4051 45.7451 66.4051C45.9025 66.4051 46.0534 66.3426 46.1647 66.2313C46.2759 66.12 46.3384 65.9691 46.3384 65.8118V51.2614L50.8357 46.7641L51.0849 46.8736L56.7331 49.3786C57.164 49.5696 57.5533 49.8433 57.8788 50.1842L58.1425 50.4637L57.867 50.7379L54.7146 53.8943C54.3639 54.2431 54.086 54.6579 53.8968 55.1149C53.7076 55.5718 53.6109 56.0617 53.6123 56.5563V65.8118C53.6123 65.9691 53.6748 66.12 53.7861 66.2313C53.8974 66.3426 54.0483 66.4051 54.2056 66.4051C54.363 66.4051 54.5139 66.3426 54.6252 66.2313C54.7364 66.12 54.7989 65.9691 54.7989 65.8118V56.5563C54.7982 56.2177 54.8646 55.8823 54.9943 55.5696C55.1239 55.2568 55.3143 54.9729 55.5544 54.7342L58.7859 51.4974L58.873 52.3214C58.8875 52.4479 58.895 52.5751 58.8954 52.7024V65.8091C58.8954 65.9665 58.9579 66.1174 59.0691 66.2287C59.1804 66.3399 59.3313 66.4025 59.4887 66.4025C59.646 66.4025 59.7969 66.3399 59.9082 66.2287C60.0195 66.1174 60.082 65.9665 60.082 65.8091V52.7037C60.0811 51.7717 59.8103 50.8599 59.3024 50.0784C58.7944 49.2969 58.071 48.6793 57.2196 48.3001ZM45.7491 50.1763L41.5762 46.0034L41.7331 45.7397C41.9821 45.3217 42.1142 44.8445 42.1154 44.358V43.3612L42.6639 43.5919C43.6411 44.001 44.6898 44.2116 45.7491 44.2116C46.8084 44.2116 47.8571 44.001 48.8343 43.5919L49.3827 43.3612V44.358C49.3838 44.8445 49.5159 45.3218 49.7651 45.7397L49.922 46.0034L45.7491 50.1763ZM45.7491 43.0237C43.945 43.0219 42.2152 42.3045 40.9395 41.0288C39.6638 39.753 38.9463 38.0233 38.9446 36.2192V35.5059L39.1937 35.407C39.815 35.1502 40.3835 34.781 40.8708 34.318C40.9312 34.266 40.9805 34.2024 41.0158 34.131C41.0511 34.0596 41.0716 33.9818 41.0762 33.9023C41.0807 33.8228 41.0693 33.7432 41.0424 33.6682C41.0156 33.5932 40.9739 33.5244 40.9199 33.4658C40.8658 33.4073 40.8006 33.3603 40.728 33.3275C40.6554 33.2947 40.577 33.2769 40.4973 33.2751C40.4177 33.2733 40.3385 33.2875 40.2645 33.3169C40.1905 33.3464 40.1232 33.3904 40.0666 33.4465C39.5234 33.9461 38.9736 34.2731 38.4304 34.4142C38.4001 34.4222 38.3692 34.4279 38.3381 34.4313L38.0744 34.4538L37.9531 34.2177C37.9128 34.1357 37.892 34.0455 37.8924 33.9541V31.9909C37.8945 30.1873 38.6117 28.4582 39.8868 27.1826C41.1619 25.907 42.8908 25.1892 44.6943 25.1864H46.8038C48.6079 25.1885 50.3374 25.906 51.6131 27.1817C52.8887 28.4573 53.6063 30.1869 53.6084 31.9909V32.2071C53.6095 32.3128 53.5739 32.4155 53.5078 32.498C53.4417 32.5804 53.3492 32.6374 53.2458 32.6593C52.1608 32.8798 51.0569 32.9942 49.9497 33.0008C46.0589 33.0008 43.9217 31.4437 42.9922 30.5155C42.9379 30.4572 42.8724 30.4105 42.7996 30.3781C42.7268 30.3456 42.6483 30.3282 42.5686 30.3268C42.4889 30.3254 42.4098 30.34 42.3359 30.3699C42.2621 30.3997 42.195 30.4441 42.1386 30.5005C42.0823 30.5568 42.0379 30.6239 42.008 30.6978C41.9782 30.7717 41.9635 30.8508 41.9649 30.9305C41.9663 31.0101 41.9838 31.0887 42.0162 31.1615C42.0486 31.2343 42.0954 31.2998 42.1537 31.3541C44.4807 33.6811 47.6912 34.1703 49.9695 34.1703C50.6838 34.1683 51.3975 34.1243 52.1067 34.0384L52.5483 33.9844V36.2192C52.5466 38.0224 51.8299 39.7513 50.5553 41.0269C49.2807 42.3025 47.5523 43.0205 45.7491 43.0237Z" fill="url(#paint0_linear)"/>
<path d="M26.2521 34.6212L26.0003 34.4577L26.09 34.1716C26.2525 33.6538 26.3011 33.107 26.2325 32.5687C26.1639 32.0304 25.9797 31.5132 25.6926 31.0528C25.4054 30.5923 25.0221 30.1993 24.5689 29.9008C24.1156 29.6023 23.6032 29.4054 23.0668 29.3235C22.5303 29.2415 21.9825 29.2766 21.4608 29.4262C20.9392 29.5758 20.456 29.8364 20.0445 30.1902C19.633 30.544 19.3029 30.9826 19.0767 31.4759C18.8506 31.9692 18.7338 32.5056 18.7343 33.0483C18.7338 33.4293 18.7916 33.8081 18.9057 34.1716L18.9954 34.4577L18.7423 34.6212C17.7667 35.2479 16.9643 36.1098 16.4089 37.1277C15.8534 38.1455 15.5627 39.2866 15.5635 40.4461V42.5557C15.5642 43.6791 15.8376 44.7856 16.36 45.7801C16.8824 46.7747 17.6384 47.6277 18.5629 48.2659L18.7343 48.3832V50.7643C18.735 51.047 18.6566 51.3243 18.508 51.5647C18.3593 51.8052 18.1464 51.9993 17.8932 52.125L14.4731 53.839C13.8469 54.1494 13.3201 54.629 12.9524 55.2234C12.5847 55.8179 12.3908 56.5034 12.3926 57.2023V65.8118C12.3926 65.9692 12.4551 66.1201 12.5664 66.2313C12.6776 66.3426 12.8285 66.4051 12.9859 66.4051C13.1432 66.4051 13.2942 66.3426 13.4054 66.2313C13.5167 66.1201 13.5792 65.9692 13.5792 65.8118V56.6749L14.2542 57.3566L15.8654 58.9677C16.1047 59.2059 16.2947 59.489 16.4243 59.8008C16.554 60.1126 16.6208 60.4469 16.6209 60.7846V65.8118C16.6209 65.9692 16.6834 66.1201 16.7946 66.2313C16.9059 66.3426 17.0568 66.4051 17.2142 66.4051C17.3715 66.4051 17.5224 66.3426 17.6337 66.2313C17.745 66.1201 17.8075 65.9692 17.8075 65.8118V60.7846C17.809 60.2899 17.7122 59.7998 17.5227 59.3429C17.3333 58.8859 17.055 58.4711 16.7039 58.1226L14.4626 55.8812L14.4441 55.8641L14.1198 55.5674L14.4494 55.2761C14.6182 55.1278 14.8052 55.0016 15.0058 54.9003L18.4337 53.1863C18.5839 53.1109 18.7273 53.0227 18.8622 52.9226L19.1365 52.7143L19.3804 52.9582L21.7892 55.3789L21.9052 55.4949V65.8184C21.9052 65.9758 21.9677 66.1267 22.079 66.2379C22.1903 66.3492 22.3412 66.4117 22.4985 66.4117C22.6559 66.4117 22.8068 66.3492 22.918 66.2379C23.0293 66.1267 23.0918 65.9758 23.0918 65.8184V55.4949L23.2039 55.3789L25.8658 52.7183L26.1401 52.9253C26.2748 53.0258 26.4182 53.114 26.5686 53.189L27.5152 53.6649C27.5968 53.7067 27.6872 53.7284 27.7789 53.7282C27.9127 53.7281 28.0425 53.6829 28.1473 53.5998C28.2521 53.5167 28.3257 53.4006 28.3563 53.2703C28.3868 53.1401 28.3724 53.0034 28.3155 52.8824C28.2586 52.7613 28.1624 52.6631 28.0426 52.6036L27.0999 52.1329C26.846 52.0062 26.6328 51.8107 26.4845 51.5688C26.3363 51.3268 26.2589 51.0481 26.2614 50.7643V48.3911L26.4328 48.2725C27.3569 47.635 28.1125 46.7829 28.6349 45.7893C29.1574 44.7957 29.431 43.6901 29.4323 42.5675V40.458C29.4351 39.2963 29.1453 38.1526 28.5895 37.1325C28.0337 36.1124 27.2298 35.2487 26.2521 34.6212ZM22.4985 30.4707C22.8753 30.4712 23.2474 30.5543 23.5887 30.714C23.9299 30.8738 24.232 31.1064 24.4737 31.3954C24.7154 31.6845 24.8908 32.023 24.9876 32.3872C25.0843 32.7513 25.1002 33.1323 25.0339 33.5032L24.9561 33.9435L24.5289 33.8117C23.2062 33.4057 21.7921 33.4057 20.4694 33.8117L20.0436 33.9435L19.9645 33.5045C19.9366 33.3531 19.922 33.1996 19.9209 33.0457C19.9223 32.3627 20.1944 31.7082 20.6776 31.2255C21.1608 30.7429 21.8156 30.4714 22.4985 30.4707ZM25.0629 51.8389L22.4985 54.4033L22.2177 54.1237L19.9328 51.8389L19.7759 51.678L19.8326 51.4592C19.8919 51.2323 19.9216 50.9988 19.9209 50.7643V49.0213L20.4351 49.1822C21.7794 49.6006 23.219 49.6006 24.5632 49.1822L25.0761 49.0227V50.7643C25.0764 50.9985 25.107 51.2316 25.1671 51.4578L25.2238 51.6767L25.0629 51.8389ZM28.2364 42.8734C28.1579 44.3708 27.4972 45.7783 26.3954 46.7953C25.2935 47.8124 23.8378 48.3586 22.3389 48.3173C20.84 48.276 19.4166 47.6505 18.3724 46.5743C17.3283 45.4981 16.7461 44.0565 16.7501 42.557V42.0375L17.0573 41.9676C18.1636 41.6989 19.1952 41.1843 20.0752 40.462L20.3389 40.2457L20.5894 40.4817C21.1156 40.9804 21.7042 41.4089 22.3403 41.7567C23.4397 42.363 24.6749 42.6806 25.9304 42.6796C26.542 42.6771 27.1512 42.6041 27.746 42.462L28.2601 42.3394L28.2364 42.8734ZM28.2456 40.8021V41.0948L27.9661 41.1805C27.307 41.3861 26.6209 41.4923 25.9304 41.4956C22.778 41.4956 20.9375 39.1343 20.861 39.0341C20.81 38.9652 20.7447 38.9083 20.6696 38.8671C20.5945 38.8259 20.5114 38.8014 20.4259 38.7954H20.385C20.2274 38.7958 20.0763 38.8583 19.9645 38.9695C19.2135 39.7436 18.2914 40.3307 17.2722 40.6835L16.7448 40.8588L16.7593 40.2985C16.8044 38.7921 17.4395 37.3637 18.5277 36.321C19.6159 35.2783 21.0701 34.7048 22.577 34.724C24.084 34.7432 25.5231 35.3535 26.5844 36.4236C27.6457 37.4936 28.2442 38.9377 28.2509 40.4448L28.2456 40.8021Z" fill="#93BD89"/>
<path d="M26.2521 34.6212L26.0003 34.4577L26.09 34.1716C26.2525 33.6538 26.3011 33.107 26.2325 32.5687C26.1639 32.0304 25.9797 31.5132 25.6926 31.0528C25.4054 30.5923 25.0221 30.1993 24.5689 29.9008C24.1156 29.6023 23.6032 29.4054 23.0668 29.3235C22.5303 29.2415 21.9825 29.2766 21.4608 29.4262C20.9392 29.5758 20.456 29.8364 20.0445 30.1902C19.633 30.544 19.3029 30.9826 19.0767 31.4759C18.8506 31.9692 18.7338 32.5056 18.7343 33.0483C18.7338 33.4293 18.7916 33.8081 18.9057 34.1716L18.9954 34.4577L18.7423 34.6212C17.7667 35.2479 16.9643 36.1098 16.4089 37.1277C15.8534 38.1455 15.5627 39.2866 15.5635 40.4461V42.5557C15.5642 43.6791 15.8376 44.7856 16.36 45.7801C16.8824 46.7747 17.6384 47.6277 18.5629 48.2659L18.7343 48.3832V50.7643C18.735 51.047 18.6566 51.3243 18.508 51.5647C18.3593 51.8052 18.1464 51.9993 17.8932 52.125L14.4731 53.839C13.8469 54.1494 13.3201 54.629 12.9524 55.2234C12.5847 55.8179 12.3908 56.5034 12.3926 57.2023V65.8118C12.3926 65.9692 12.4551 66.1201 12.5664 66.2313C12.6776 66.3426 12.8285 66.4051 12.9859 66.4051C13.1432 66.4051 13.2942 66.3426 13.4054 66.2313C13.5167 66.1201 13.5792 65.9692 13.5792 65.8118V56.6749L14.2542 57.3566L15.8654 58.9677C16.1047 59.2059 16.2947 59.489 16.4243 59.8008C16.554 60.1126 16.6208 60.4469 16.6209 60.7846V65.8118C16.6209 65.9692 16.6834 66.1201 16.7946 66.2313C16.9059 66.3426 17.0568 66.4051 17.2142 66.4051C17.3715 66.4051 17.5224 66.3426 17.6337 66.2313C17.745 66.1201 17.8075 65.9692 17.8075 65.8118V60.7846C17.809 60.2899 17.7122 59.7998 17.5227 59.3429C17.3333 58.8859 17.055 58.4711 16.7039 58.1226L14.4626 55.8812L14.4441 55.8641L14.1198 55.5674L14.4494 55.2761C14.6182 55.1278 14.8052 55.0016 15.0058 54.9003L18.4337 53.1863C18.5839 53.1109 18.7273 53.0227 18.8622 52.9226L19.1365 52.7143L19.3804 52.9582L21.7892 55.3789L21.9052 55.4949V65.8184C21.9052 65.9758 21.9677 66.1267 22.079 66.2379C22.1903 66.3492 22.3412 66.4117 22.4985 66.4117C22.6559 66.4117 22.8068 66.3492 22.918 66.2379C23.0293 66.1267 23.0918 65.9758 23.0918 65.8184V55.4949L23.2039 55.3789L25.8658 52.7183L26.1401 52.9253C26.2748 53.0258 26.4182 53.114 26.5686 53.189L27.5152 53.6649C27.5968 53.7067 27.6872 53.7284 27.7789 53.7282C27.9127 53.7281 28.0425 53.6829 28.1473 53.5998C28.2521 53.5167 28.3257 53.4006 28.3563 53.2703C28.3868 53.1401 28.3724 53.0034 28.3155 52.8824C28.2586 52.7613 28.1624 52.6631 28.0426 52.6036L27.0999 52.1329C26.846 52.0062 26.6328 51.8107 26.4845 51.5688C26.3363 51.3268 26.2589 51.0481 26.2614 50.7643V48.3911L26.4328 48.2725C27.3569 47.635 28.1125 46.7829 28.6349 45.7893C29.1574 44.7957 29.431 43.6901 29.4323 42.5675V40.458C29.4351 39.2963 29.1453 38.1526 28.5895 37.1325C28.0337 36.1124 27.2298 35.2487 26.2521 34.6212ZM22.4985 30.4707C22.8753 30.4712 23.2474 30.5543 23.5887 30.714C23.9299 30.8738 24.232 31.1064 24.4737 31.3954C24.7154 31.6845 24.8908 32.023 24.9876 32.3872C25.0843 32.7513 25.1002 33.1323 25.0339 33.5032L24.9561 33.9435L24.5289 33.8117C23.2062 33.4057 21.7921 33.4057 20.4694 33.8117L20.0436 33.9435L19.9645 33.5045C19.9366 33.3531 19.922 33.1996 19.9209 33.0457C19.9223 32.3627 20.1944 31.7082 20.6776 31.2255C21.1608 30.7429 21.8156 30.4714 22.4985 30.4707ZM25.0629 51.8389L22.4985 54.4033L22.2177 54.1237L19.9328 51.8389L19.7759 51.678L19.8326 51.4592C19.8919 51.2323 19.9216 50.9988 19.9209 50.7643V49.0213L20.4351 49.1822C21.7794 49.6006 23.219 49.6006 24.5632 49.1822L25.0761 49.0227V50.7643C25.0764 50.9985 25.107 51.2316 25.1671 51.4578L25.2238 51.6767L25.0629 51.8389ZM28.2364 42.8734C28.1579 44.3708 27.4972 45.7783 26.3954 46.7953C25.2935 47.8124 23.8378 48.3586 22.3389 48.3173C20.84 48.276 19.4166 47.6505 18.3724 46.5743C17.3283 45.4981 16.7461 44.0565 16.7501 42.557V42.0375L17.0573 41.9676C18.1636 41.6989 19.1952 41.1843 20.0752 40.462L20.3389 40.2457L20.5894 40.4817C21.1156 40.9804 21.7042 41.4089 22.3403 41.7567C23.4397 42.363 24.6749 42.6806 25.9304 42.6796C26.542 42.6771 27.1512 42.6041 27.746 42.462L28.2601 42.3394L28.2364 42.8734ZM28.2456 40.8021V41.0948L27.9661 41.1805C27.307 41.3861 26.6209 41.4923 25.9304 41.4956C22.778 41.4956 20.9375 39.1343 20.861 39.0341C20.81 38.9652 20.7447 38.9083 20.6696 38.8671C20.5945 38.8259 20.5114 38.8014 20.4259 38.7954H20.385C20.2274 38.7958 20.0763 38.8583 19.9645 38.9695C19.2135 39.7436 18.2914 40.3307 17.2722 40.6835L16.7448 40.8588L16.7593 40.2985C16.8044 38.7921 17.4395 37.3637 18.5277 36.321C19.6159 35.2783 21.0701 34.7048 22.577 34.724C24.084 34.7432 25.5231 35.3535 26.5844 36.4236C27.6457 37.4936 28.2442 38.9377 28.2509 40.4448L28.2456 40.8021Z" fill="url(#paint1_linear)"/>
<path d="M77.0258 51.7215L71.4883 48.9528C71.2368 48.8274 71.0253 48.6343 70.8774 48.3954C70.7296 48.1565 70.6512 47.8811 70.6511 47.6001V46.0179L70.7829 45.8993C71.404 45.3478 71.9014 44.6712 72.2422 43.9138C72.5831 43.1564 72.7598 42.3354 72.7606 41.5049V39.982H73.2247C73.3819 39.9817 73.5326 39.9191 73.6438 39.8079C73.755 39.6967 73.8176 39.546 73.818 39.3887V37.2792C73.8166 35.7207 73.1969 34.2263 72.095 33.1242C70.9931 32.022 69.4989 31.402 67.9403 31.4002H65.8308C64.2723 31.402 62.7781 32.022 61.6762 33.1242C60.5742 34.2263 59.9546 35.7207 59.9532 37.2792V39.3887C59.9532 39.5461 60.0157 39.697 60.1269 39.8083C60.2382 39.9195 60.3891 39.982 60.5465 39.982H60.5979L61.0092 39.9649V41.5035C61.0102 42.3341 61.1869 43.155 61.5277 43.9124C61.8686 44.6698 62.3659 45.3465 62.9869 45.8979L63.1188 46.0166V47.5987C63.1195 47.8814 63.0411 48.1587 62.8924 48.3991C62.7438 48.6396 62.5308 48.8337 62.2776 48.9594C62.1585 49.0193 62.0631 49.1175 62.0067 49.2383C61.9503 49.359 61.9361 49.4952 61.9666 49.625C61.9971 49.7547 62.0703 49.8705 62.1746 49.9535C62.2788 50.0365 62.408 50.082 62.5413 50.0827C62.6327 50.0824 62.7229 50.0612 62.805 50.0207C62.9551 49.9453 63.0985 49.8571 63.2335 49.757L63.5077 49.5487L66.2844 52.3267V65.8118C66.2844 65.9692 66.3469 66.1201 66.4581 66.2313C66.5694 66.3426 66.7203 66.4051 66.8777 66.4051C67.035 66.4051 67.1859 66.3426 67.2972 66.2313C67.4085 66.1201 67.471 65.9692 67.471 65.8118V52.3175L67.587 52.2014L70.009 49.7847L70.2529 49.5408L70.5364 49.7491C70.6712 49.8495 70.8145 49.9377 70.9649 50.0128L76.3204 52.6893L76.8109 52.9358L74.795 54.9517C74.4431 55.301 74.1643 55.7169 73.9749 56.175C73.7854 56.6332 73.6891 57.1245 73.6914 57.6203V65.8184C73.6914 65.9758 73.7539 66.1267 73.8652 66.2379C73.9765 66.3492 74.1274 66.4117 74.2847 66.4117C74.4421 66.4117 74.593 66.3492 74.7043 66.2379C74.8155 66.1267 74.878 65.9758 74.878 65.8184V57.6203C74.8771 57.2815 74.9434 56.9459 75.0731 56.6329C75.2028 56.3199 75.3933 56.0357 75.6335 55.7969L77.66 53.7704L77.834 54.4389C77.8908 54.654 77.9196 54.8756 77.9197 55.0981V65.821C77.9197 65.9784 77.9822 66.1293 78.0935 66.2406C78.2047 66.3518 78.3556 66.4144 78.513 66.4144C78.6704 66.4144 78.8213 66.3518 78.9325 66.2406C79.0438 66.1293 79.1063 65.9784 79.1063 65.821V55.0889C79.1086 54.3893 78.9149 53.7031 78.5472 53.1079C78.1795 52.5128 77.6524 52.0325 77.0258 51.7215ZM61.1398 38.744V37.2753C61.1412 36.0316 61.6358 34.8392 62.5153 33.9597C63.3947 33.0803 64.5871 32.5856 65.8308 32.5842H67.9403C69.1841 32.5856 70.3764 33.0803 71.2559 33.9597C72.1353 34.8392 72.63 36.0316 72.6314 37.2753V38.7915L72.2148 38.7691C67.823 38.5317 65.1307 36.8019 65.1057 36.7888C65.0072 36.7233 64.8917 36.688 64.7734 36.6872C64.6955 36.6871 64.6183 36.7024 64.5464 36.7323C64.4744 36.7621 64.4091 36.806 64.3542 36.8613C63.6021 37.636 62.6786 38.2231 61.6579 38.5753L61.1398 38.744ZM69.446 48.668L67.1598 50.9529L66.8803 51.2337L64.3225 48.668L64.1617 48.5085L64.2197 48.2883C64.2792 48.0619 64.3098 47.8289 64.3106 47.5948V46.8156L64.838 47.0133C66.1563 47.5038 67.607 47.5038 68.9252 47.0133L69.4592 46.8156V47.6001C69.4593 47.8342 69.4899 48.0673 69.5502 48.2936L69.6069 48.5137L69.446 48.668ZM66.8803 46.1946C65.6366 46.1932 64.4442 45.6985 63.5648 44.8191C62.6853 43.9396 62.1907 42.7473 62.1893 41.5035V39.6419L62.4384 39.5417C63.2442 39.2153 63.9911 38.7593 64.6495 38.1916L64.8525 38.0189L65.0885 38.1415C66.0879 38.6623 68.2119 39.5786 71.2154 39.8818L71.5714 39.9174V41.4996C71.571 42.7428 71.0777 43.9352 70.1996 44.8153C69.3214 45.6954 68.1302 46.1914 66.8869 46.1946H66.8803Z" fill="#93BD89"/>
<path d="M77.0258 51.7215L71.4883 48.9528C71.2368 48.8274 71.0253 48.6343 70.8774 48.3954C70.7296 48.1565 70.6512 47.8811 70.6511 47.6001V46.0179L70.7829 45.8993C71.404 45.3478 71.9014 44.6712 72.2422 43.9138C72.5831 43.1564 72.7598 42.3354 72.7606 41.5049V39.982H73.2247C73.3819 39.9817 73.5326 39.9191 73.6438 39.8079C73.755 39.6967 73.8176 39.546 73.818 39.3887V37.2792C73.8166 35.7207 73.1969 34.2263 72.095 33.1242C70.9931 32.022 69.4989 31.402 67.9403 31.4002H65.8308C64.2723 31.402 62.7781 32.022 61.6762 33.1242C60.5742 34.2263 59.9546 35.7207 59.9532 37.2792V39.3887C59.9532 39.5461 60.0157 39.697 60.1269 39.8083C60.2382 39.9195 60.3891 39.982 60.5465 39.982H60.5979L61.0092 39.9649V41.5035C61.0102 42.3341 61.1869 43.155 61.5277 43.9124C61.8686 44.6698 62.3659 45.3465 62.9869 45.8979L63.1188 46.0166V47.5987C63.1195 47.8814 63.0411 48.1587 62.8924 48.3991C62.7438 48.6396 62.5308 48.8337 62.2776 48.9594C62.1585 49.0193 62.0631 49.1175 62.0067 49.2383C61.9503 49.359 61.9361 49.4952 61.9666 49.625C61.9971 49.7547 62.0703 49.8705 62.1746 49.9535C62.2788 50.0365 62.408 50.082 62.5413 50.0827C62.6327 50.0824 62.7229 50.0612 62.805 50.0207C62.9551 49.9453 63.0985 49.8571 63.2335 49.757L63.5077 49.5487L66.2844 52.3267V65.8118C66.2844 65.9692 66.3469 66.1201 66.4581 66.2313C66.5694 66.3426 66.7203 66.4051 66.8777 66.4051C67.035 66.4051 67.1859 66.3426 67.2972 66.2313C67.4085 66.1201 67.471 65.9692 67.471 65.8118V52.3175L67.587 52.2014L70.009 49.7847L70.2529 49.5408L70.5364 49.7491C70.6712 49.8495 70.8145 49.9377 70.9649 50.0128L76.3204 52.6893L76.8109 52.9358L74.795 54.9517C74.4431 55.301 74.1643 55.7169 73.9749 56.175C73.7854 56.6332 73.6891 57.1245 73.6914 57.6203V65.8184C73.6914 65.9758 73.7539 66.1267 73.8652 66.2379C73.9765 66.3492 74.1274 66.4117 74.2847 66.4117C74.4421 66.4117 74.593 66.3492 74.7043 66.2379C74.8155 66.1267 74.878 65.9758 74.878 65.8184V57.6203C74.8771 57.2815 74.9434 56.9459 75.0731 56.6329C75.2028 56.3199 75.3933 56.0357 75.6335 55.7969L77.66 53.7704L77.834 54.4389C77.8908 54.654 77.9196 54.8756 77.9197 55.0981V65.821C77.9197 65.9784 77.9822 66.1293 78.0935 66.2406C78.2047 66.3518 78.3556 66.4144 78.513 66.4144C78.6704 66.4144 78.8213 66.3518 78.9325 66.2406C79.0438 66.1293 79.1063 65.9784 79.1063 65.821V55.0889C79.1086 54.3893 78.9149 53.7031 78.5472 53.1079C78.1795 52.5128 77.6524 52.0325 77.0258 51.7215ZM61.1398 38.744V37.2753C61.1412 36.0316 61.6358 34.8392 62.5153 33.9597C63.3947 33.0803 64.5871 32.5856 65.8308 32.5842H67.9403C69.1841 32.5856 70.3764 33.0803 71.2559 33.9597C72.1353 34.8392 72.63 36.0316 72.6314 37.2753V38.7915L72.2148 38.7691C67.823 38.5317 65.1307 36.8019 65.1057 36.7888C65.0072 36.7233 64.8917 36.688 64.7734 36.6872C64.6955 36.6871 64.6183 36.7024 64.5464 36.7323C64.4744 36.7621 64.4091 36.806 64.3542 36.8613C63.6021 37.636 62.6786 38.2231 61.6579 38.5753L61.1398 38.744ZM69.446 48.668L67.1598 50.9529L66.8803 51.2337L64.3225 48.668L64.1617 48.5085L64.2197 48.2883C64.2792 48.0619 64.3098 47.8289 64.3106 47.5948V46.8156L64.838 47.0133C66.1563 47.5038 67.607 47.5038 68.9252 47.0133L69.4592 46.8156V47.6001C69.4593 47.8342 69.4899 48.0673 69.5502 48.2936L69.6069 48.5137L69.446 48.668ZM66.8803 46.1946C65.6366 46.1932 64.4442 45.6985 63.5648 44.8191C62.6853 43.9396 62.1907 42.7473 62.1893 41.5035V39.6419L62.4384 39.5417C63.2442 39.2153 63.9911 38.7593 64.6495 38.1916L64.8525 38.0189L65.0885 38.1415C66.0879 38.6623 68.2119 39.5786 71.2154 39.8818L71.5714 39.9174V41.4996C71.571 42.7428 71.0777 43.9352 70.1996 44.8153C69.3214 45.6954 68.1302 46.1914 66.8869 46.1946H66.8803Z" fill="url(#paint2_linear)"/>
<path d="M57.2196 48.3001L51.4725 45.7463C51.2039 45.6267 50.9757 45.4317 50.8156 45.1851C50.6556 44.9384 50.5705 44.6507 50.5707 44.3566V42.5899L50.7196 42.4713C51.6627 41.7252 52.4246 40.7753 52.9479 39.6927C53.4713 38.6101 53.7426 37.423 53.7415 36.2205V33.7642L53.9446 33.6521C54.2036 33.5089 54.4193 33.2987 54.5694 33.0436C54.7194 32.7885 54.7983 32.4978 54.7976 32.2018V31.9909C54.7952 29.8718 53.9521 27.8402 52.4534 26.3421C50.9548 24.8439 48.9229 24.0015 46.8038 23.9998H44.6943C42.5755 24.0018 40.544 24.8444 39.0456 26.3425C37.5472 27.8407 36.7043 29.872 36.7019 31.9909V33.9475C36.6971 34.206 36.752 34.4621 36.8622 34.696C36.9724 34.9299 37.135 35.1353 37.3374 35.2962C37.4048 35.346 37.4762 35.3902 37.551 35.4281L37.7593 35.5402V36.2139C37.7579 37.4164 38.0291 38.6036 38.5525 39.6863C39.0759 40.7689 39.8379 41.7188 40.7812 42.4647L40.9301 42.5833V44.3566C40.93 44.6508 40.8447 44.9386 40.6844 45.1852C40.5241 45.4319 40.2958 45.6267 40.027 45.7463L34.2786 48.3001C33.4267 48.6792 32.7029 49.297 32.1947 50.0787C31.6865 50.8604 31.4156 51.7727 31.4149 52.7051V65.8118C31.4149 65.9691 31.4774 66.12 31.5887 66.2313C31.6999 66.3426 31.8508 66.4051 32.0082 66.4051C32.1655 66.4051 32.3165 66.3426 32.4277 66.2313C32.539 66.12 32.6015 65.9691 32.6015 65.8118V52.7051C32.6025 52.5778 32.61 52.4506 32.6239 52.324L32.7109 51.5L33.2976 52.0854L35.9451 54.7342C36.185 54.9729 36.3752 55.2569 36.5046 55.5697C36.6341 55.8825 36.7002 56.2178 36.6992 56.5563V65.8118C36.6992 65.9691 36.7617 66.12 36.873 66.2313C36.9843 66.3426 37.1352 66.4051 37.2925 66.4051C37.4499 66.4051 37.6008 66.3426 37.7121 66.2313C37.8233 66.12 37.8858 65.9691 37.8858 65.8118V56.5563C37.8873 56.0617 37.7906 55.5718 37.6014 55.1149C37.4122 54.6579 37.1343 54.2431 36.7836 53.8943L33.6286 50.7379L33.3556 50.4637L33.6193 50.1842C33.943 49.8464 34.3295 49.575 34.7572 49.3852L40.4067 46.8801L40.6546 46.7707L40.8471 46.9619L45.1518 51.268V65.8118C45.1518 65.9691 45.2143 66.12 45.3256 66.2313C45.4369 66.3426 45.5878 66.4051 45.7451 66.4051C45.9025 66.4051 46.0534 66.3426 46.1647 66.2313C46.2759 66.12 46.3384 65.9691 46.3384 65.8118V51.2614L50.8357 46.7641L51.0849 46.8736L56.7331 49.3786C57.164 49.5696 57.5533 49.8433 57.8788 50.1842L58.1425 50.4637L57.867 50.7379L54.7146 53.8943C54.3639 54.2431 54.086 54.6579 53.8968 55.1149C53.7076 55.5718 53.6109 56.0617 53.6123 56.5563V65.8118C53.6123 65.9691 53.6748 66.12 53.7861 66.2313C53.8974 66.3426 54.0483 66.4051 54.2056 66.4051C54.363 66.4051 54.5139 66.3426 54.6252 66.2313C54.7364 66.12 54.7989 65.9691 54.7989 65.8118V56.5563C54.7982 56.2177 54.8646 55.8823 54.9943 55.5696C55.1239 55.2568 55.3143 54.9729 55.5544 54.7342L58.7859 51.4974L58.873 52.3214C58.8875 52.4479 58.895 52.5751 58.8954 52.7024V65.8091C58.8954 65.9665 58.9579 66.1174 59.0691 66.2287C59.1804 66.3399 59.3313 66.4025 59.4887 66.4025C59.646 66.4025 59.7969 66.3399 59.9082 66.2287C60.0195 66.1174 60.082 65.9665 60.082 65.8091V52.7037C60.0811 51.7717 59.8103 50.8599 59.3024 50.0784C58.7944 49.2969 58.071 48.6793 57.2196 48.3001ZM45.7491 50.1763L41.5762 46.0034L41.7331 45.7397C41.9821 45.3217 42.1142 44.8445 42.1154 44.358V43.3612L42.6639 43.5919C43.6411 44.001 44.6898 44.2116 45.7491 44.2116C46.8084 44.2116 47.8571 44.001 48.8343 43.5919L49.3827 43.3612V44.358C49.3838 44.8445 49.5159 45.3218 49.7651 45.7397L49.922 46.0034L45.7491 50.1763ZM45.7491 43.0237C43.945 43.0219 42.2152 42.3045 40.9395 41.0288C39.6638 39.753 38.9463 38.0233 38.9446 36.2192V35.5059L39.1937 35.407C39.815 35.1502 40.3835 34.781 40.8708 34.318C40.9312 34.266 40.9805 34.2024 41.0158 34.131C41.0511 34.0596 41.0716 33.9818 41.0762 33.9023C41.0807 33.8228 41.0693 33.7432 41.0424 33.6682C41.0156 33.5932 40.9739 33.5244 40.9199 33.4658C40.8658 33.4073 40.8006 33.3603 40.728 33.3275C40.6554 33.2947 40.577 33.2769 40.4973 33.2751C40.4177 33.2733 40.3385 33.2875 40.2645 33.3169C40.1905 33.3464 40.1232 33.3904 40.0666 33.4465C39.5234 33.9461 38.9736 34.2731 38.4304 34.4142C38.4001 34.4222 38.3692 34.4279 38.3381 34.4313L38.0744 34.4538L37.9531 34.2177C37.9128 34.1357 37.892 34.0455 37.8924 33.9541V31.9909C37.8945 30.1873 38.6117 28.4582 39.8868 27.1826C41.1619 25.907 42.8908 25.1892 44.6943 25.1864H46.8038C48.6079 25.1885 50.3374 25.906 51.6131 27.1817C52.8887 28.4573 53.6063 30.1869 53.6084 31.9909V32.2071C53.6095 32.3128 53.5739 32.4155 53.5078 32.498C53.4417 32.5804 53.3492 32.6374 53.2458 32.6593C52.1608 32.8798 51.0569 32.9942 49.9497 33.0008C46.0589 33.0008 43.9217 31.4437 42.9922 30.5155C42.9379 30.4572 42.8724 30.4105 42.7996 30.3781C42.7268 30.3456 42.6483 30.3282 42.5686 30.3268C42.4889 30.3254 42.4098 30.34 42.3359 30.3699C42.2621 30.3997 42.195 30.4441 42.1386 30.5005C42.0823 30.5568 42.0379 30.6239 42.008 30.6978C41.9782 30.7717 41.9635 30.8508 41.9649 30.9305C41.9663 31.0101 41.9838 31.0887 42.0162 31.1615C42.0486 31.2343 42.0954 31.2998 42.1537 31.3541C44.4807 33.6811 47.6912 34.1703 49.9695 34.1703C50.6838 34.1683 51.3975 34.1243 52.1067 34.0384L52.5483 33.9844V36.2192C52.5466 38.0224 51.8299 39.7513 50.5553 41.0269C49.2807 42.3025 47.5523 43.0205 45.7491 43.0237Z" stroke="#93BD89" stroke-width="0.724791"/>
<path d="M57.2196 48.3001L51.4725 45.7463C51.2039 45.6267 50.9757 45.4317 50.8156 45.1851C50.6556 44.9384 50.5705 44.6507 50.5707 44.3566V42.5899L50.7196 42.4713C51.6627 41.7252 52.4246 40.7753 52.9479 39.6927C53.4713 38.6101 53.7426 37.423 53.7415 36.2205V33.7642L53.9446 33.6521C54.2036 33.5089 54.4193 33.2987 54.5694 33.0436C54.7194 32.7885 54.7983 32.4978 54.7976 32.2018V31.9909C54.7952 29.8718 53.9521 27.8402 52.4534 26.3421C50.9548 24.8439 48.9229 24.0015 46.8038 23.9998H44.6943C42.5755 24.0018 40.544 24.8444 39.0456 26.3425C37.5472 27.8407 36.7043 29.872 36.7019 31.9909V33.9475C36.6971 34.206 36.752 34.4621 36.8622 34.696C36.9724 34.9299 37.135 35.1353 37.3374 35.2962C37.4048 35.346 37.4762 35.3902 37.551 35.4281L37.7593 35.5402V36.2139C37.7579 37.4164 38.0291 38.6036 38.5525 39.6863C39.0759 40.7689 39.8379 41.7188 40.7812 42.4647L40.9301 42.5833V44.3566C40.93 44.6508 40.8447 44.9386 40.6844 45.1852C40.5241 45.4319 40.2958 45.6267 40.027 45.7463L34.2786 48.3001C33.4267 48.6792 32.7029 49.297 32.1947 50.0787C31.6865 50.8604 31.4156 51.7727 31.4149 52.7051V65.8118C31.4149 65.9691 31.4774 66.12 31.5887 66.2313C31.6999 66.3426 31.8508 66.4051 32.0082 66.4051C32.1655 66.4051 32.3165 66.3426 32.4277 66.2313C32.539 66.12 32.6015 65.9691 32.6015 65.8118V52.7051C32.6025 52.5778 32.61 52.4506 32.6239 52.324L32.7109 51.5L33.2976 52.0854L35.9451 54.7342C36.185 54.9729 36.3752 55.2569 36.5046 55.5697C36.6341 55.8825 36.7002 56.2178 36.6992 56.5563V65.8118C36.6992 65.9691 36.7617 66.12 36.873 66.2313C36.9843 66.3426 37.1352 66.4051 37.2925 66.4051C37.4499 66.4051 37.6008 66.3426 37.7121 66.2313C37.8233 66.12 37.8858 65.9691 37.8858 65.8118V56.5563C37.8873 56.0617 37.7906 55.5718 37.6014 55.1149C37.4122 54.6579 37.1343 54.2431 36.7836 53.8943L33.6286 50.7379L33.3556 50.4637L33.6193 50.1842C33.943 49.8464 34.3295 49.575 34.7572 49.3852L40.4067 46.8801L40.6546 46.7707L40.8471 46.9619L45.1518 51.268V65.8118C45.1518 65.9691 45.2143 66.12 45.3256 66.2313C45.4369 66.3426 45.5878 66.4051 45.7451 66.4051C45.9025 66.4051 46.0534 66.3426 46.1647 66.2313C46.2759 66.12 46.3384 65.9691 46.3384 65.8118V51.2614L50.8357 46.7641L51.0849 46.8736L56.7331 49.3786C57.164 49.5696 57.5533 49.8433 57.8788 50.1842L58.1425 50.4637L57.867 50.7379L54.7146 53.8943C54.3639 54.2431 54.086 54.6579 53.8968 55.1149C53.7076 55.5718 53.6109 56.0617 53.6123 56.5563V65.8118C53.6123 65.9691 53.6748 66.12 53.7861 66.2313C53.8974 66.3426 54.0483 66.4051 54.2056 66.4051C54.363 66.4051 54.5139 66.3426 54.6252 66.2313C54.7364 66.12 54.7989 65.9691 54.7989 65.8118V56.5563C54.7982 56.2177 54.8646 55.8823 54.9943 55.5696C55.1239 55.2568 55.3143 54.9729 55.5544 54.7342L58.7859 51.4974L58.873 52.3214C58.8875 52.4479 58.895 52.5751 58.8954 52.7024V65.8091C58.8954 65.9665 58.9579 66.1174 59.0691 66.2287C59.1804 66.3399 59.3313 66.4025 59.4887 66.4025C59.646 66.4025 59.7969 66.3399 59.9082 66.2287C60.0195 66.1174 60.082 65.9665 60.082 65.8091V52.7037C60.0811 51.7717 59.8103 50.8599 59.3024 50.0784C58.7944 49.2969 58.071 48.6793 57.2196 48.3001ZM45.7491 50.1763L41.5762 46.0034L41.7331 45.7397C41.9821 45.3217 42.1142 44.8445 42.1154 44.358V43.3612L42.6639 43.5919C43.6411 44.001 44.6898 44.2116 45.7491 44.2116C46.8084 44.2116 47.8571 44.001 48.8343 43.5919L49.3827 43.3612V44.358C49.3838 44.8445 49.5159 45.3218 49.7651 45.7397L49.922 46.0034L45.7491 50.1763ZM45.7491 43.0237C43.945 43.0219 42.2152 42.3045 40.9395 41.0288C39.6638 39.753 38.9463 38.0233 38.9446 36.2192V35.5059L39.1937 35.407C39.815 35.1502 40.3835 34.781 40.8708 34.318C40.9312 34.266 40.9805 34.2024 41.0158 34.131C41.0511 34.0596 41.0716 33.9818 41.0762 33.9023C41.0807 33.8228 41.0693 33.7432 41.0424 33.6682C41.0156 33.5932 40.9739 33.5244 40.9199 33.4658C40.8658 33.4073 40.8006 33.3603 40.728 33.3275C40.6554 33.2947 40.577 33.2769 40.4973 33.2751C40.4177 33.2733 40.3385 33.2875 40.2645 33.3169C40.1905 33.3464 40.1232 33.3904 40.0666 33.4465C39.5234 33.9461 38.9736 34.2731 38.4304 34.4142C38.4001 34.4222 38.3692 34.4279 38.3381 34.4313L38.0744 34.4538L37.9531 34.2177C37.9128 34.1357 37.892 34.0455 37.8924 33.9541V31.9909C37.8945 30.1873 38.6117 28.4582 39.8868 27.1826C41.1619 25.907 42.8908 25.1892 44.6943 25.1864H46.8038C48.6079 25.1885 50.3374 25.906 51.6131 27.1817C52.8887 28.4573 53.6063 30.1869 53.6084 31.9909V32.2071C53.6095 32.3128 53.5739 32.4155 53.5078 32.498C53.4417 32.5804 53.3492 32.6374 53.2458 32.6593C52.1608 32.8798 51.0569 32.9942 49.9497 33.0008C46.0589 33.0008 43.9217 31.4437 42.9922 30.5155C42.9379 30.4572 42.8724 30.4105 42.7996 30.3781C42.7268 30.3456 42.6483 30.3282 42.5686 30.3268C42.4889 30.3254 42.4098 30.34 42.3359 30.3699C42.2621 30.3997 42.195 30.4441 42.1386 30.5005C42.0823 30.5568 42.0379 30.6239 42.008 30.6978C41.9782 30.7717 41.9635 30.8508 41.9649 30.9305C41.9663 31.0101 41.9838 31.0887 42.0162 31.1615C42.0486 31.2343 42.0954 31.2998 42.1537 31.3541C44.4807 33.6811 47.6912 34.1703 49.9695 34.1703C50.6838 34.1683 51.3975 34.1243 52.1067 34.0384L52.5483 33.9844V36.2192C52.5466 38.0224 51.8299 39.7513 50.5553 41.0269C49.2807 42.3025 47.5523 43.0205 45.7491 43.0237Z" stroke="url(#paint3_linear)" stroke-width="0.724791"/>
<path d="M26.2521 34.6212L26.0003 34.4577L26.09 34.1716C26.2525 33.6538 26.3011 33.107 26.2325 32.5687C26.1639 32.0304 25.9797 31.5132 25.6926 31.0528C25.4054 30.5923 25.0221 30.1993 24.5689 29.9008C24.1156 29.6023 23.6032 29.4054 23.0668 29.3235C22.5303 29.2415 21.9825 29.2766 21.4608 29.4262C20.9392 29.5758 20.456 29.8364 20.0445 30.1902C19.633 30.544 19.3029 30.9826 19.0767 31.4759C18.8506 31.9692 18.7338 32.5056 18.7343 33.0483C18.7338 33.4293 18.7916 33.8081 18.9057 34.1716L18.9954 34.4577L18.7423 34.6212C17.7667 35.2479 16.9643 36.1098 16.4089 37.1277C15.8534 38.1455 15.5627 39.2866 15.5635 40.4461V42.5557C15.5642 43.6791 15.8376 44.7856 16.36 45.7801C16.8824 46.7747 17.6384 47.6277 18.5629 48.2659L18.7343 48.3832V50.7643C18.735 51.047 18.6566 51.3243 18.508 51.5647C18.3593 51.8052 18.1464 51.9993 17.8932 52.125L14.4731 53.839C13.8469 54.1494 13.3201 54.629 12.9524 55.2234C12.5847 55.8179 12.3908 56.5034 12.3926 57.2023V65.8118C12.3926 65.9692 12.4551 66.1201 12.5664 66.2313C12.6776 66.3426 12.8285 66.4051 12.9859 66.4051C13.1432 66.4051 13.2942 66.3426 13.4054 66.2313C13.5167 66.1201 13.5792 65.9692 13.5792 65.8118V56.6749L14.2542 57.3566L15.8654 58.9677C16.1047 59.2059 16.2947 59.489 16.4243 59.8008C16.554 60.1126 16.6208 60.4469 16.6209 60.7846V65.8118C16.6209 65.9692 16.6834 66.1201 16.7946 66.2313C16.9059 66.3426 17.0568 66.4051 17.2142 66.4051C17.3715 66.4051 17.5224 66.3426 17.6337 66.2313C17.745 66.1201 17.8075 65.9692 17.8075 65.8118V60.7846C17.809 60.2899 17.7122 59.7998 17.5227 59.3429C17.3333 58.8859 17.055 58.4711 16.7039 58.1226L14.4626 55.8812L14.4441 55.8641L14.1198 55.5674L14.4494 55.2761C14.6182 55.1278 14.8052 55.0016 15.0058 54.9003L18.4337 53.1863C18.5839 53.1109 18.7273 53.0227 18.8622 52.9226L19.1365 52.7143L19.3804 52.9582L21.7892 55.3789L21.9052 55.4949V65.8184C21.9052 65.9758 21.9677 66.1267 22.079 66.2379C22.1903 66.3492 22.3412 66.4117 22.4985 66.4117C22.6559 66.4117 22.8068 66.3492 22.918 66.2379C23.0293 66.1267 23.0918 65.9758 23.0918 65.8184V55.4949L23.2039 55.3789L25.8658 52.7183L26.1401 52.9253C26.2748 53.0258 26.4182 53.114 26.5686 53.189L27.5152 53.6649C27.5968 53.7067 27.6872 53.7284 27.7789 53.7282C27.9127 53.7281 28.0425 53.6829 28.1473 53.5998C28.2521 53.5167 28.3257 53.4006 28.3563 53.2703C28.3868 53.1401 28.3724 53.0034 28.3155 52.8824C28.2586 52.7613 28.1624 52.6631 28.0426 52.6036L27.0999 52.1329C26.846 52.0062 26.6328 51.8107 26.4845 51.5688C26.3363 51.3268 26.2589 51.0481 26.2614 50.7643V48.3911L26.4328 48.2725C27.3569 47.635 28.1125 46.7829 28.6349 45.7893C29.1574 44.7957 29.431 43.6901 29.4323 42.5675V40.458C29.4351 39.2963 29.1453 38.1526 28.5895 37.1325C28.0337 36.1124 27.2298 35.2487 26.2521 34.6212ZM22.4985 30.4707C22.8753 30.4712 23.2474 30.5543 23.5887 30.714C23.9299 30.8738 24.232 31.1064 24.4737 31.3954C24.7154 31.6845 24.8908 32.023 24.9876 32.3872C25.0843 32.7513 25.1002 33.1323 25.0339 33.5032L24.9561 33.9435L24.5289 33.8117C23.2062 33.4057 21.7921 33.4057 20.4694 33.8117L20.0436 33.9435L19.9645 33.5045C19.9366 33.3531 19.922 33.1996 19.9209 33.0457C19.9223 32.3627 20.1944 31.7082 20.6776 31.2255C21.1608 30.7429 21.8156 30.4714 22.4985 30.4707ZM25.0629 51.8389L22.4985 54.4033L22.2177 54.1237L19.9328 51.8389L19.7759 51.678L19.8326 51.4592C19.8919 51.2323 19.9216 50.9988 19.9209 50.7643V49.0213L20.4351 49.1822C21.7794 49.6006 23.219 49.6006 24.5632 49.1822L25.0761 49.0227V50.7643C25.0764 50.9985 25.107 51.2316 25.1671 51.4578L25.2238 51.6767L25.0629 51.8389ZM28.2364 42.8734C28.1579 44.3708 27.4972 45.7783 26.3954 46.7953C25.2935 47.8124 23.8378 48.3586 22.3389 48.3173C20.84 48.276 19.4166 47.6505 18.3724 46.5743C17.3283 45.4981 16.7461 44.0565 16.7501 42.557V42.0375L17.0573 41.9676C18.1636 41.6989 19.1952 41.1843 20.0752 40.462L20.3389 40.2457L20.5894 40.4817C21.1156 40.9804 21.7042 41.4089 22.3403 41.7567C23.4397 42.363 24.6749 42.6806 25.9304 42.6796C26.542 42.6771 27.1512 42.6041 27.746 42.462L28.2601 42.3394L28.2364 42.8734ZM28.2456 40.8021V41.0948L27.9661 41.1805C27.307 41.3861 26.6209 41.4923 25.9304 41.4956C22.778 41.4956 20.9375 39.1343 20.861 39.0341C20.81 38.9652 20.7447 38.9083 20.6696 38.8671C20.5945 38.8259 20.5114 38.8014 20.4259 38.7954H20.385C20.2274 38.7958 20.0763 38.8583 19.9645 38.9695C19.2135 39.7436 18.2914 40.3307 17.2722 40.6835L16.7448 40.8588L16.7593 40.2985C16.8044 38.7921 17.4395 37.3637 18.5277 36.321C19.6159 35.2783 21.0701 34.7048 22.577 34.724C24.084 34.7432 25.5231 35.3535 26.5844 36.4236C27.6457 37.4936 28.2442 38.9377 28.2509 40.4448L28.2456 40.8021Z" stroke="#93BD89" stroke-width="0.724791"/>
<path d="M26.2521 34.6212L26.0003 34.4577L26.09 34.1716C26.2525 33.6538 26.3011 33.107 26.2325 32.5687C26.1639 32.0304 25.9797 31.5132 25.6926 31.0528C25.4054 30.5923 25.0221 30.1993 24.5689 29.9008C24.1156 29.6023 23.6032 29.4054 23.0668 29.3235C22.5303 29.2415 21.9825 29.2766 21.4608 29.4262C20.9392 29.5758 20.456 29.8364 20.0445 30.1902C19.633 30.544 19.3029 30.9826 19.0767 31.4759C18.8506 31.9692 18.7338 32.5056 18.7343 33.0483C18.7338 33.4293 18.7916 33.8081 18.9057 34.1716L18.9954 34.4577L18.7423 34.6212C17.7667 35.2479 16.9643 36.1098 16.4089 37.1277C15.8534 38.1455 15.5627 39.2866 15.5635 40.4461V42.5557C15.5642 43.6791 15.8376 44.7856 16.36 45.7801C16.8824 46.7747 17.6384 47.6277 18.5629 48.2659L18.7343 48.3832V50.7643C18.735 51.047 18.6566 51.3243 18.508 51.5647C18.3593 51.8052 18.1464 51.9993 17.8932 52.125L14.4731 53.839C13.8469 54.1494 13.3201 54.629 12.9524 55.2234C12.5847 55.8179 12.3908 56.5034 12.3926 57.2023V65.8118C12.3926 65.9692 12.4551 66.1201 12.5664 66.2313C12.6776 66.3426 12.8285 66.4051 12.9859 66.4051C13.1432 66.4051 13.2942 66.3426 13.4054 66.2313C13.5167 66.1201 13.5792 65.9692 13.5792 65.8118V56.6749L14.2542 57.3566L15.8654 58.9677C16.1047 59.2059 16.2947 59.489 16.4243 59.8008C16.554 60.1126 16.6208 60.4469 16.6209 60.7846V65.8118C16.6209 65.9692 16.6834 66.1201 16.7946 66.2313C16.9059 66.3426 17.0568 66.4051 17.2142 66.4051C17.3715 66.4051 17.5224 66.3426 17.6337 66.2313C17.745 66.1201 17.8075 65.9692 17.8075 65.8118V60.7846C17.809 60.2899 17.7122 59.7998 17.5227 59.3429C17.3333 58.8859 17.055 58.4711 16.7039 58.1226L14.4626 55.8812L14.4441 55.8641L14.1198 55.5674L14.4494 55.2761C14.6182 55.1278 14.8052 55.0016 15.0058 54.9003L18.4337 53.1863C18.5839 53.1109 18.7273 53.0227 18.8622 52.9226L19.1365 52.7143L19.3804 52.9582L21.7892 55.3789L21.9052 55.4949V65.8184C21.9052 65.9758 21.9677 66.1267 22.079 66.2379C22.1903 66.3492 22.3412 66.4117 22.4985 66.4117C22.6559 66.4117 22.8068 66.3492 22.918 66.2379C23.0293 66.1267 23.0918 65.9758 23.0918 65.8184V55.4949L23.2039 55.3789L25.8658 52.7183L26.1401 52.9253C26.2748 53.0258 26.4182 53.114 26.5686 53.189L27.5152 53.6649C27.5968 53.7067 27.6872 53.7284 27.7789 53.7282C27.9127 53.7281 28.0425 53.6829 28.1473 53.5998C28.2521 53.5167 28.3257 53.4006 28.3563 53.2703C28.3868 53.1401 28.3724 53.0034 28.3155 52.8824C28.2586 52.7613 28.1624 52.6631 28.0426 52.6036L27.0999 52.1329C26.846 52.0062 26.6328 51.8107 26.4845 51.5688C26.3363 51.3268 26.2589 51.0481 26.2614 50.7643V48.3911L26.4328 48.2725C27.3569 47.635 28.1125 46.7829 28.6349 45.7893C29.1574 44.7957 29.431 43.6901 29.4323 42.5675V40.458C29.4351 39.2963 29.1453 38.1526 28.5895 37.1325C28.0337 36.1124 27.2298 35.2487 26.2521 34.6212ZM22.4985 30.4707C22.8753 30.4712 23.2474 30.5543 23.5887 30.714C23.9299 30.8738 24.232 31.1064 24.4737 31.3954C24.7154 31.6845 24.8908 32.023 24.9876 32.3872C25.0843 32.7513 25.1002 33.1323 25.0339 33.5032L24.9561 33.9435L24.5289 33.8117C23.2062 33.4057 21.7921 33.4057 20.4694 33.8117L20.0436 33.9435L19.9645 33.5045C19.9366 33.3531 19.922 33.1996 19.9209 33.0457C19.9223 32.3627 20.1944 31.7082 20.6776 31.2255C21.1608 30.7429 21.8156 30.4714 22.4985 30.4707ZM25.0629 51.8389L22.4985 54.4033L22.2177 54.1237L19.9328 51.8389L19.7759 51.678L19.8326 51.4592C19.8919 51.2323 19.9216 50.9988 19.9209 50.7643V49.0213L20.4351 49.1822C21.7794 49.6006 23.219 49.6006 24.5632 49.1822L25.0761 49.0227V50.7643C25.0764 50.9985 25.107 51.2316 25.1671 51.4578L25.2238 51.6767L25.0629 51.8389ZM28.2364 42.8734C28.1579 44.3708 27.4972 45.7783 26.3954 46.7953C25.2935 47.8124 23.8378 48.3586 22.3389 48.3173C20.84 48.276 19.4166 47.6505 18.3724 46.5743C17.3283 45.4981 16.7461 44.0565 16.7501 42.557V42.0375L17.0573 41.9676C18.1636 41.6989 19.1952 41.1843 20.0752 40.462L20.3389 40.2457L20.5894 40.4817C21.1156 40.9804 21.7042 41.4089 22.3403 41.7567C23.4397 42.363 24.6749 42.6806 25.9304 42.6796C26.542 42.6771 27.1512 42.6041 27.746 42.462L28.2601 42.3394L28.2364 42.8734ZM28.2456 40.8021V41.0948L27.9661 41.1805C27.307 41.3861 26.6209 41.4923 25.9304 41.4956C22.778 41.4956 20.9375 39.1343 20.861 39.0341C20.81 38.9652 20.7447 38.9083 20.6696 38.8671C20.5945 38.8259 20.5114 38.8014 20.4259 38.7954H20.385C20.2274 38.7958 20.0763 38.8583 19.9645 38.9695C19.2135 39.7436 18.2914 40.3307 17.2722 40.6835L16.7448 40.8588L16.7593 40.2985C16.8044 38.7921 17.4395 37.3637 18.5277 36.321C19.6159 35.2783 21.0701 34.7048 22.577 34.724C24.084 34.7432 25.5231 35.3535 26.5844 36.4236C27.6457 37.4936 28.2442 38.9377 28.2509 40.4448L28.2456 40.8021Z" stroke="url(#paint4_linear)" stroke-width="0.724791"/>
<path d="M77.0258 51.7215L71.4883 48.9528C71.2368 48.8274 71.0253 48.6343 70.8774 48.3954C70.7296 48.1565 70.6512 47.8811 70.6511 47.6001V46.0179L70.7829 45.8993C71.404 45.3478 71.9014 44.6712 72.2422 43.9138C72.5831 43.1564 72.7598 42.3354 72.7606 41.5049V39.982H73.2247C73.3819 39.9817 73.5326 39.9191 73.6438 39.8079C73.755 39.6967 73.8176 39.546 73.818 39.3887V37.2792C73.8166 35.7207 73.1969 34.2263 72.095 33.1242C70.9931 32.022 69.4989 31.402 67.9403 31.4002H65.8308C64.2723 31.402 62.7781 32.022 61.6762 33.1242C60.5742 34.2263 59.9546 35.7207 59.9532 37.2792V39.3887C59.9532 39.5461 60.0157 39.697 60.1269 39.8083C60.2382 39.9195 60.3891 39.982 60.5465 39.982H60.5979L61.0092 39.9649V41.5035C61.0102 42.3341 61.1869 43.155 61.5277 43.9124C61.8686 44.6698 62.3659 45.3465 62.9869 45.8979L63.1188 46.0166V47.5987C63.1195 47.8814 63.0411 48.1587 62.8924 48.3991C62.7438 48.6396 62.5308 48.8337 62.2776 48.9594C62.1585 49.0193 62.0631 49.1175 62.0067 49.2383C61.9503 49.359 61.9361 49.4952 61.9666 49.625C61.9971 49.7547 62.0703 49.8705 62.1746 49.9535C62.2788 50.0365 62.408 50.082 62.5413 50.0827C62.6327 50.0824 62.7229 50.0612 62.805 50.0207C62.9551 49.9453 63.0985 49.8571 63.2335 49.757L63.5077 49.5487L66.2844 52.3267V65.8118C66.2844 65.9692 66.3469 66.1201 66.4581 66.2313C66.5694 66.3426 66.7203 66.4051 66.8777 66.4051C67.035 66.4051 67.1859 66.3426 67.2972 66.2313C67.4085 66.1201 67.471 65.9692 67.471 65.8118V52.3175L67.587 52.2014L70.009 49.7847L70.2529 49.5408L70.5364 49.7491C70.6712 49.8495 70.8145 49.9377 70.9649 50.0128L76.3204 52.6893L76.8109 52.9358L74.795 54.9517C74.4431 55.301 74.1643 55.7169 73.9749 56.175C73.7854 56.6332 73.6891 57.1245 73.6914 57.6203V65.8184C73.6914 65.9758 73.7539 66.1267 73.8652 66.2379C73.9765 66.3492 74.1274 66.4117 74.2847 66.4117C74.4421 66.4117 74.593 66.3492 74.7043 66.2379C74.8155 66.1267 74.878 65.9758 74.878 65.8184V57.6203C74.8771 57.2815 74.9434 56.9459 75.0731 56.6329C75.2028 56.3199 75.3933 56.0357 75.6335 55.7969L77.66 53.7704L77.834 54.4389C77.8908 54.654 77.9196 54.8756 77.9197 55.0981V65.821C77.9197 65.9784 77.9822 66.1293 78.0935 66.2406C78.2047 66.3518 78.3556 66.4144 78.513 66.4144C78.6704 66.4144 78.8213 66.3518 78.9325 66.2406C79.0438 66.1293 79.1063 65.9784 79.1063 65.821V55.0889C79.1086 54.3893 78.9149 53.7031 78.5472 53.1079C78.1795 52.5128 77.6524 52.0325 77.0258 51.7215ZM61.1398 38.744V37.2753C61.1412 36.0316 61.6358 34.8392 62.5153 33.9597C63.3947 33.0803 64.5871 32.5856 65.8308 32.5842H67.9403C69.1841 32.5856 70.3764 33.0803 71.2559 33.9597C72.1353 34.8392 72.63 36.0316 72.6314 37.2753V38.7915L72.2148 38.7691C67.823 38.5317 65.1307 36.8019 65.1057 36.7888C65.0072 36.7233 64.8917 36.688 64.7734 36.6872C64.6955 36.6871 64.6183 36.7024 64.5464 36.7323C64.4744 36.7621 64.4091 36.806 64.3542 36.8613C63.6021 37.636 62.6786 38.2231 61.6579 38.5753L61.1398 38.744ZM69.446 48.668L67.1598 50.9529L66.8803 51.2337L64.3225 48.668L64.1617 48.5085L64.2197 48.2883C64.2792 48.0619 64.3098 47.8289 64.3106 47.5948V46.8156L64.838 47.0133C66.1563 47.5038 67.607 47.5038 68.9252 47.0133L69.4592 46.8156V47.6001C69.4593 47.8342 69.4899 48.0673 69.5502 48.2936L69.6069 48.5137L69.446 48.668ZM66.8803 46.1946C65.6366 46.1932 64.4442 45.6985 63.5648 44.8191C62.6853 43.9396 62.1907 42.7473 62.1893 41.5035V39.6419L62.4384 39.5417C63.2442 39.2153 63.9911 38.7593 64.6495 38.1916L64.8525 38.0189L65.0885 38.1415C66.0879 38.6623 68.2119 39.5786 71.2154 39.8818L71.5714 39.9174V41.4996C71.571 42.7428 71.0777 43.9352 70.1996 44.8153C69.3214 45.6954 68.1302 46.1914 66.8869 46.1946H66.8803Z" stroke="#93BD89" stroke-width="0.724791"/>
<path d="M77.0258 51.7215L71.4883 48.9528C71.2368 48.8274 71.0253 48.6343 70.8774 48.3954C70.7296 48.1565 70.6512 47.8811 70.6511 47.6001V46.0179L70.7829 45.8993C71.404 45.3478 71.9014 44.6712 72.2422 43.9138C72.5831 43.1564 72.7598 42.3354 72.7606 41.5049V39.982H73.2247C73.3819 39.9817 73.5326 39.9191 73.6438 39.8079C73.755 39.6967 73.8176 39.546 73.818 39.3887V37.2792C73.8166 35.7207 73.1969 34.2263 72.095 33.1242C70.9931 32.022 69.4989 31.402 67.9403 31.4002H65.8308C64.2723 31.402 62.7781 32.022 61.6762 33.1242C60.5742 34.2263 59.9546 35.7207 59.9532 37.2792V39.3887C59.9532 39.5461 60.0157 39.697 60.1269 39.8083C60.2382 39.9195 60.3891 39.982 60.5465 39.982H60.5979L61.0092 39.9649V41.5035C61.0102 42.3341 61.1869 43.155 61.5277 43.9124C61.8686 44.6698 62.3659 45.3465 62.9869 45.8979L63.1188 46.0166V47.5987C63.1195 47.8814 63.0411 48.1587 62.8924 48.3991C62.7438 48.6396 62.5308 48.8337 62.2776 48.9594C62.1585 49.0193 62.0631 49.1175 62.0067 49.2383C61.9503 49.359 61.9361 49.4952 61.9666 49.625C61.9971 49.7547 62.0703 49.8705 62.1746 49.9535C62.2788 50.0365 62.408 50.082 62.5413 50.0827C62.6327 50.0824 62.7229 50.0612 62.805 50.0207C62.9551 49.9453 63.0985 49.8571 63.2335 49.757L63.5077 49.5487L66.2844 52.3267V65.8118C66.2844 65.9692 66.3469 66.1201 66.4581 66.2313C66.5694 66.3426 66.7203 66.4051 66.8777 66.4051C67.035 66.4051 67.1859 66.3426 67.2972 66.2313C67.4085 66.1201 67.471 65.9692 67.471 65.8118V52.3175L67.587 52.2014L70.009 49.7847L70.2529 49.5408L70.5364 49.7491C70.6712 49.8495 70.8145 49.9377 70.9649 50.0128L76.3204 52.6893L76.8109 52.9358L74.795 54.9517C74.4431 55.301 74.1643 55.7169 73.9749 56.175C73.7854 56.6332 73.6891 57.1245 73.6914 57.6203V65.8184C73.6914 65.9758 73.7539 66.1267 73.8652 66.2379C73.9765 66.3492 74.1274 66.4117 74.2847 66.4117C74.4421 66.4117 74.593 66.3492 74.7043 66.2379C74.8155 66.1267 74.878 65.9758 74.878 65.8184V57.6203C74.8771 57.2815 74.9434 56.9459 75.0731 56.6329C75.2028 56.3199 75.3933 56.0357 75.6335 55.7969L77.66 53.7704L77.834 54.4389C77.8908 54.654 77.9196 54.8756 77.9197 55.0981V65.821C77.9197 65.9784 77.9822 66.1293 78.0935 66.2406C78.2047 66.3518 78.3556 66.4144 78.513 66.4144C78.6704 66.4144 78.8213 66.3518 78.9325 66.2406C79.0438 66.1293 79.1063 65.9784 79.1063 65.821V55.0889C79.1086 54.3893 78.9149 53.7031 78.5472 53.1079C78.1795 52.5128 77.6524 52.0325 77.0258 51.7215ZM61.1398 38.744V37.2753C61.1412 36.0316 61.6358 34.8392 62.5153 33.9597C63.3947 33.0803 64.5871 32.5856 65.8308 32.5842H67.9403C69.1841 32.5856 70.3764 33.0803 71.2559 33.9597C72.1353 34.8392 72.63 36.0316 72.6314 37.2753V38.7915L72.2148 38.7691C67.823 38.5317 65.1307 36.8019 65.1057 36.7888C65.0072 36.7233 64.8917 36.688 64.7734 36.6872C64.6955 36.6871 64.6183 36.7024 64.5464 36.7323C64.4744 36.7621 64.4091 36.806 64.3542 36.8613C63.6021 37.636 62.6786 38.2231 61.6579 38.5753L61.1398 38.744ZM69.446 48.668L67.1598 50.9529L66.8803 51.2337L64.3225 48.668L64.1617 48.5085L64.2197 48.2883C64.2792 48.0619 64.3098 47.8289 64.3106 47.5948V46.8156L64.838 47.0133C66.1563 47.5038 67.607 47.5038 68.9252 47.0133L69.4592 46.8156V47.6001C69.4593 47.8342 69.4899 48.0673 69.5502 48.2936L69.6069 48.5137L69.446 48.668ZM66.8803 46.1946C65.6366 46.1932 64.4442 45.6985 63.5648 44.8191C62.6853 43.9396 62.1907 42.7473 62.1893 41.5035V39.6419L62.4384 39.5417C63.2442 39.2153 63.9911 38.7593 64.6495 38.1916L64.8525 38.0189L65.0885 38.1415C66.0879 38.6623 68.2119 39.5786 71.2154 39.8818L71.5714 39.9174V41.4996C71.571 42.7428 71.0777 43.9352 70.1996 44.8153C69.3214 45.6954 68.1302 46.1914 66.8869 46.1946H66.8803Z" stroke="url(#paint5_linear)" stroke-width="0.724791"/>
<defs>
<linearGradient id="paint0_linear" x1="20.7391" y1="30.9046" x2="102.728" y2="63.8778" gradientUnits="userSpaceOnUse">
<stop stop-color="#114F5C"/>
<stop offset="1" stop-color="#29362F" stop-opacity="0"/>
</linearGradient>
<linearGradient id="paint1_linear" x1="20.7391" y1="30.9046" x2="102.728" y2="63.8778" gradientUnits="userSpaceOnUse">
<stop stop-color="#114F5C"/>
<stop offset="1" stop-color="#29362F" stop-opacity="0"/>
</linearGradient>
<linearGradient id="paint2_linear" x1="20.7391" y1="30.9046" x2="102.728" y2="63.8778" gradientUnits="userSpaceOnUse">
<stop stop-color="#114F5C"/>
<stop offset="1" stop-color="#29362F" stop-opacity="0"/>
</linearGradient>
<linearGradient id="paint3_linear" x1="20.7391" y1="30.9046" x2="102.728" y2="63.8778" gradientUnits="userSpaceOnUse">
<stop stop-color="#114F5C"/>
<stop offset="1" stop-color="#29362F" stop-opacity="0"/>
</linearGradient>
<linearGradient id="paint4_linear" x1="20.7391" y1="30.9046" x2="102.728" y2="63.8778" gradientUnits="userSpaceOnUse">
<stop stop-color="#114F5C"/>
<stop offset="1" stop-color="#29362F" stop-opacity="0"/>
</linearGradient>
<linearGradient id="paint5_linear" x1="20.7391" y1="30.9046" x2="102.728" y2="63.8778" gradientUnits="userSpaceOnUse">
<stop stop-color="#114F5C"/>
<stop offset="1" stop-color="#29362F" stop-opacity="0"/>
</linearGradient>
</defs>
</svg>
