<svg width="90" height="90" viewBox="0 0 90 90" fill="none" xmlns="http://www.w3.org/2000/svg">
<path d="M41.8125 73.125C45.1116 73.125 47.8428 70.6749 48.3002 67.5H58.2993L57.0872 68.7122L58.4128 70.0378L61.2253 67.2253C61.4084 67.0422 61.5 66.8024 61.5 66.5625C61.5 66.3226 61.4084 66.0828 61.2253 65.8997L58.4128 63.0872L57.0872 64.4128L58.2993 65.625H48.3002C47.8428 62.4501 45.1116 60 41.8125 60C38.1943 60 35.25 62.9439 35.25 66.5625C35.25 70.1811 38.1943 73.125 41.8125 73.125ZM41.8125 61.875C44.397 61.875 46.5 63.978 46.5 66.5625C46.5 69.147 44.397 71.25 41.8125 71.25C39.228 71.25 37.125 69.147 37.125 66.5625C37.125 63.978 39.228 61.875 41.8125 61.875Z" fill="#93BD89"/>
<path d="M41.8125 73.125C45.1116 73.125 47.8428 70.6749 48.3002 67.5H58.2993L57.0872 68.7122L58.4128 70.0378L61.2253 67.2253C61.4084 67.0422 61.5 66.8024 61.5 66.5625C61.5 66.3226 61.4084 66.0828 61.2253 65.8997L58.4128 63.0872L57.0872 64.4128L58.2993 65.625H48.3002C47.8428 62.4501 45.1116 60 41.8125 60C38.1943 60 35.25 62.9439 35.25 66.5625C35.25 70.1811 38.1943 73.125 41.8125 73.125ZM41.8125 61.875C44.397 61.875 46.5 63.978 46.5 66.5625C46.5 69.147 44.397 71.25 41.8125 71.25C39.228 71.25 37.125 69.147 37.125 66.5625C37.125 63.978 39.228 61.875 41.8125 61.875Z" fill="url(#paint0_linear)"/>
<path d="M68.0625 73.125C71.6807 73.125 74.625 70.1811 74.625 66.5625C74.625 62.9439 71.6807 60 68.0625 60C64.4443 60 61.5 62.9439 61.5 66.5625C61.5 70.1811 64.4443 73.125 68.0625 73.125ZM68.0625 61.875C70.647 61.875 72.75 63.978 72.75 66.5625C72.75 69.147 70.647 71.25 68.0625 71.25C65.478 71.25 63.375 69.147 63.375 66.5625C63.375 63.978 65.478 61.875 68.0625 61.875Z" fill="#93BD89"/>
<path d="M68.0625 73.125C71.6807 73.125 74.625 70.1811 74.625 66.5625C74.625 62.9439 71.6807 60 68.0625 60C64.4443 60 61.5 62.9439 61.5 66.5625C61.5 70.1811 64.4443 73.125 68.0625 73.125ZM68.0625 61.875C70.647 61.875 72.75 63.978 72.75 66.5625C72.75 69.147 70.647 71.25 68.0625 71.25C65.478 71.25 63.375 69.147 63.375 66.5625C63.375 63.978 65.478 61.875 68.0625 61.875Z" fill="url(#paint1_linear)"/>
<path d="M38.0625 38.4375C34.7634 38.4375 32.0323 40.8876 31.5749 44.0625H30.0938C23.632 44.0625 18.375 49.3195 18.375 55.7812C18.375 62.243 23.632 67.5 30.0938 67.5H32.0493L30.8372 68.7122L32.1628 70.0378L34.9753 67.2253C35.1584 67.0422 35.25 66.8024 35.25 66.5625C35.25 66.3226 35.1584 66.0828 34.9753 65.8997L32.1628 63.0872L30.8372 64.4128L32.0493 65.625H30.0938C24.6656 65.625 20.25 61.209 20.25 55.7812C20.25 50.3535 24.6656 45.9375 30.0938 45.9375H31.5749C32.0323 49.1124 34.7634 51.5625 38.0625 51.5625C41.6807 51.5625 44.625 48.6186 44.625 45C44.625 41.3814 41.6807 38.4375 38.0625 38.4375ZM38.0625 49.6875C35.478 49.6875 33.375 47.5845 33.375 45C33.375 42.4155 35.478 40.3125 38.0625 40.3125C40.647 40.3125 42.75 42.4155 42.75 45C42.75 47.5845 40.647 49.6875 38.0625 49.6875Z" fill="#93BD89"/>
<path d="M38.0625 38.4375C34.7634 38.4375 32.0323 40.8876 31.5749 44.0625H30.0938C23.632 44.0625 18.375 49.3195 18.375 55.7812C18.375 62.243 23.632 67.5 30.0938 67.5H32.0493L30.8372 68.7122L32.1628 70.0378L34.9753 67.2253C35.1584 67.0422 35.25 66.8024 35.25 66.5625C35.25 66.3226 35.1584 66.0828 34.9753 65.8997L32.1628 63.0872L30.8372 64.4128L32.0493 65.625H30.0938C24.6656 65.625 20.25 61.209 20.25 55.7812C20.25 50.3535 24.6656 45.9375 30.0938 45.9375H31.5749C32.0323 49.1124 34.7634 51.5625 38.0625 51.5625C41.6807 51.5625 44.625 48.6186 44.625 45C44.625 41.3814 41.6807 38.4375 38.0625 38.4375ZM38.0625 49.6875C35.478 49.6875 33.375 47.5845 33.375 45C33.375 42.4155 35.478 40.3125 38.0625 40.3125C40.647 40.3125 42.75 42.4155 42.75 45C42.75 47.5845 40.647 49.6875 38.0625 49.6875Z" fill="url(#paint2_linear)"/>
<path d="M41.5378 19.9622L40.2122 21.2878L41.4243 22.5H31.4252C30.9678 19.3251 28.2366 16.875 24.9375 16.875C21.3193 16.875 18.375 19.8189 18.375 23.4375C18.375 27.0561 21.3193 30 24.9375 30C28.2366 30 30.9678 27.5499 31.4252 24.375H41.4243L40.2122 25.5872L41.5378 26.9128L44.3503 24.1003C44.5334 23.9172 44.625 23.6774 44.625 23.4375C44.625 23.1976 44.5334 22.9578 44.3503 22.7747L41.5378 19.9622ZM24.9375 28.125C22.353 28.125 20.25 26.022 20.25 23.4375C20.25 20.853 22.353 18.75 24.9375 18.75C27.522 18.75 29.625 20.853 29.625 23.4375C29.625 26.022 27.522 28.125 24.9375 28.125Z" fill="#93BD89"/>
<path d="M41.5378 19.9622L40.2122 21.2878L41.4243 22.5H31.4252C30.9678 19.3251 28.2366 16.875 24.9375 16.875C21.3193 16.875 18.375 19.8189 18.375 23.4375C18.375 27.0561 21.3193 30 24.9375 30C28.2366 30 30.9678 27.5499 31.4252 24.375H41.4243L40.2122 25.5872L41.5378 26.9128L44.3503 24.1003C44.5334 23.9172 44.625 23.6774 44.625 23.4375C44.625 23.1976 44.5334 22.9578 44.3503 22.7747L41.5378 19.9622ZM24.9375 28.125C22.353 28.125 20.25 26.022 20.25 23.4375C20.25 20.853 22.353 18.75 24.9375 18.75C27.522 18.75 29.625 20.853 29.625 23.4375C29.625 26.022 27.522 28.125 24.9375 28.125Z" fill="url(#paint3_linear)"/>
<path d="M74.625 34.2188C74.625 27.757 69.368 22.5 62.9062 22.5H57.6752C57.2178 19.3251 54.4866 16.875 51.1875 16.875C47.5693 16.875 44.625 19.8189 44.625 23.4375C44.625 27.0561 47.5693 30 51.1875 30C54.4866 30 57.2178 27.5499 57.6752 24.375H62.9062C68.3344 24.375 72.75 28.791 72.75 34.2188C72.75 39.6465 68.3344 44.0625 62.9062 44.0625H47.8257L49.0378 42.8503L47.7122 41.5247L44.8997 44.3372C44.7166 44.5203 44.625 44.7601 44.625 45C44.625 45.2399 44.7166 45.4797 44.8997 45.6628L47.7122 48.4753L49.0378 47.1497L47.8257 45.9375H62.9062C69.368 45.9375 74.625 40.6805 74.625 34.2188ZM51.1875 28.125C48.603 28.125 46.5 26.022 46.5 23.4375C46.5 20.853 48.603 18.75 51.1875 18.75C53.772 18.75 55.875 20.853 55.875 23.4375C55.875 26.022 53.772 28.125 51.1875 28.125Z" fill="#93BD89"/>
<path d="M74.625 34.2188C74.625 27.757 69.368 22.5 62.9062 22.5H57.6752C57.2178 19.3251 54.4866 16.875 51.1875 16.875C47.5693 16.875 44.625 19.8189 44.625 23.4375C44.625 27.0561 47.5693 30 51.1875 30C54.4866 30 57.2178 27.5499 57.6752 24.375H62.9062C68.3344 24.375 72.75 28.791 72.75 34.2188C72.75 39.6465 68.3344 44.0625 62.9062 44.0625H47.8257L49.0378 42.8503L47.7122 41.5247L44.8997 44.3372C44.7166 44.5203 44.625 44.7601 44.625 45C44.625 45.2399 44.7166 45.4797 44.8997 45.6628L47.7122 48.4753L49.0378 47.1497L47.8257 45.9375H62.9062C69.368 45.9375 74.625 40.6805 74.625 34.2188ZM51.1875 28.125C48.603 28.125 46.5 26.022 46.5 23.4375C46.5 20.853 48.603 18.75 51.1875 18.75C53.772 18.75 55.875 20.853 55.875 23.4375C55.875 26.022 53.772 28.125 51.1875 28.125Z" fill="url(#paint4_linear)"/>
<defs>
<linearGradient id="paint0_linear" x1="25.4124" y1="26.0322" x2="100.795" y2="45.3063" gradientUnits="userSpaceOnUse">
<stop stop-color="#114F5C"/>
<stop offset="1" stop-color="#29362F" stop-opacity="0"/>
</linearGradient>
<linearGradient id="paint1_linear" x1="25.4124" y1="26.0322" x2="100.795" y2="45.3063" gradientUnits="userSpaceOnUse">
<stop stop-color="#114F5C"/>
<stop offset="1" stop-color="#29362F" stop-opacity="0"/>
</linearGradient>
<linearGradient id="paint2_linear" x1="25.4124" y1="26.0322" x2="100.795" y2="45.3063" gradientUnits="userSpaceOnUse">
<stop stop-color="#114F5C"/>
<stop offset="1" stop-color="#29362F" stop-opacity="0"/>
</linearGradient>
<linearGradient id="paint3_linear" x1="25.4124" y1="26.0322" x2="100.795" y2="45.3063" gradientUnits="userSpaceOnUse">
<stop stop-color="#114F5C"/>
<stop offset="1" stop-color="#29362F" stop-opacity="0"/>
</linearGradient>
<linearGradient id="paint4_linear" x1="25.4124" y1="26.0322" x2="100.795" y2="45.3063" gradientUnits="userSpaceOnUse">
<stop stop-color="#114F5C"/>
<stop offset="1" stop-color="#29362F" stop-opacity="0"/>
</linearGradient>
</defs>
</svg>
