<svg width="90" height="90" viewBox="0 0 90 90" fill="none" xmlns="http://www.w3.org/2000/svg">
<path d="M76.4823 37.2361C76.3303 34.3731 75.2298 31.642 73.3542 29.4735C71.4786 27.305 68.9347 25.8224 66.1234 25.2594L65.8361 25.2022L65.7594 24.9232C64.6187 20.8273 62.1884 17.208 58.8289 14.602C55.4062 11.9335 51.1879 10.4892 46.8479 10.5001C43.5664 10.4994 40.3372 11.3222 37.4562 12.8932C34.5751 14.4642 32.1344 16.7331 30.3577 19.4921L30.168 19.7849L29.8319 19.6915C28.9035 19.4341 27.9335 19.3622 26.9774 19.48C26.0212 19.5978 25.0977 19.903 24.2595 20.378C23.4214 20.853 22.6852 21.4886 22.0929 22.2484C21.5006 23.0082 21.0639 23.8773 20.8078 24.8061C20.7897 24.8744 20.7716 24.9455 20.7548 25.0125L20.6851 25.2914L20.4061 25.3598C18.7565 25.755 17.2008 26.4714 15.8281 27.4679C14.4553 28.4645 13.2923 29.7217 12.4054 31.1678C11.5186 32.6139 10.9254 34.2205 10.6596 35.8959C10.3937 37.5713 10.4606 39.2827 10.8562 40.9322C11.2271 42.4703 11.875 43.9259 12.7666 45.2284C12.9724 45.5291 13.3913 45.5763 13.6724 45.3444C13.9381 45.1251 13.9818 44.7362 13.7884 44.4511C12.6918 42.8346 12.018 40.9649 11.8339 39.0136C11.6305 36.8573 12.0331 34.687 12.9964 32.7472C13.9597 30.8074 15.4455 29.175 17.2864 28.034C19.1273 26.8929 21.2502 26.2885 23.416 26.2887C23.7407 26.2887 24.0239 26.0437 24.0531 25.7203L24.0567 25.681C24.0892 25.3219 23.817 25.0065 23.4565 25.0056C23.4439 25.0055 23.4314 25.0055 23.4188 25.0055C23.1901 25.0055 23.0004 25.0055 22.7842 25.0209L22.024 25.0585L22.3253 24.3611C22.8627 23.1167 23.8026 22.0889 24.9942 21.4427C26.1857 20.7964 27.5599 20.5692 28.896 20.7975L29.5223 20.9035L29.2433 21.474C29.1331 21.6974 29.0282 21.9211 28.9287 22.1439C28.7816 22.473 28.9483 22.8539 29.2855 22.9814C29.6105 23.1042 29.9731 22.945 30.1151 22.628C31.7455 18.9881 34.5217 15.9734 38.0285 14.0498C41.7181 12.026 45.9916 11.3332 50.1316 12.0877C54.2716 12.8423 58.0259 14.9983 60.7642 18.1937C63.3665 21.2306 64.9006 25.0304 65.1422 29.0111C65.1633 29.3586 65.4468 29.6361 65.795 29.6361C66.1557 29.6361 66.4467 29.3391 66.4261 28.9791C66.3937 28.4112 66.3364 27.8449 66.2545 27.2818L66.1471 26.5481L66.8585 26.7587C68.594 27.2678 70.1869 28.1745 71.5107 29.4068C72.8345 30.6391 73.8529 32.1631 74.4849 33.8577C75.1168 35.5523 75.345 37.3709 75.1514 39.1692C74.9797 40.7632 74.4807 42.3023 73.6882 43.6909C73.5177 43.9896 73.591 44.3732 73.8721 44.5713C74.17 44.7813 74.5843 44.702 74.7663 44.3861C76.013 42.2221 76.6115 39.7397 76.4823 37.2361Z" fill="#93BD89"/>
<path d="M76.4823 37.2361C76.3303 34.3731 75.2298 31.642 73.3542 29.4735C71.4786 27.305 68.9347 25.8224 66.1234 25.2594L65.8361 25.2022L65.7594 24.9232C64.6187 20.8273 62.1884 17.208 58.8289 14.602C55.4062 11.9335 51.1879 10.4892 46.8479 10.5001C43.5664 10.4994 40.3372 11.3222 37.4562 12.8932C34.5751 14.4642 32.1344 16.7331 30.3577 19.4921L30.168 19.7849L29.8319 19.6915C28.9035 19.4341 27.9335 19.3622 26.9774 19.48C26.0212 19.5978 25.0977 19.903 24.2595 20.378C23.4214 20.853 22.6852 21.4886 22.0929 22.2484C21.5006 23.0082 21.0639 23.8773 20.8078 24.8061C20.7897 24.8744 20.7716 24.9455 20.7548 25.0125L20.6851 25.2914L20.4061 25.3598C18.7565 25.755 17.2008 26.4714 15.8281 27.4679C14.4553 28.4645 13.2923 29.7217 12.4054 31.1678C11.5186 32.6139 10.9254 34.2205 10.6596 35.8959C10.3937 37.5713 10.4606 39.2827 10.8562 40.9322C11.2271 42.4703 11.875 43.9259 12.7666 45.2284C12.9724 45.5291 13.3913 45.5763 13.6724 45.3444C13.9381 45.1251 13.9818 44.7362 13.7884 44.4511C12.6918 42.8346 12.018 40.9649 11.8339 39.0136C11.6305 36.8573 12.0331 34.687 12.9964 32.7472C13.9597 30.8074 15.4455 29.175 17.2864 28.034C19.1273 26.8929 21.2502 26.2885 23.416 26.2887C23.7407 26.2887 24.0239 26.0437 24.0531 25.7203L24.0567 25.681C24.0892 25.3219 23.817 25.0065 23.4565 25.0056C23.4439 25.0055 23.4314 25.0055 23.4188 25.0055C23.1901 25.0055 23.0004 25.0055 22.7842 25.0209L22.024 25.0585L22.3253 24.3611C22.8627 23.1167 23.8026 22.0889 24.9942 21.4427C26.1857 20.7964 27.5599 20.5692 28.896 20.7975L29.5223 20.9035L29.2433 21.474C29.1331 21.6974 29.0282 21.9211 28.9287 22.1439C28.7816 22.473 28.9483 22.8539 29.2855 22.9814C29.6105 23.1042 29.9731 22.945 30.1151 22.628C31.7455 18.9881 34.5217 15.9734 38.0285 14.0498C41.7181 12.026 45.9916 11.3332 50.1316 12.0877C54.2716 12.8423 58.0259 14.9983 60.7642 18.1937C63.3665 21.2306 64.9006 25.0304 65.1422 29.0111C65.1633 29.3586 65.4468 29.6361 65.795 29.6361C66.1557 29.6361 66.4467 29.3391 66.4261 28.9791C66.3937 28.4112 66.3364 27.8449 66.2545 27.2818L66.1471 26.5481L66.8585 26.7587C68.594 27.2678 70.1869 28.1745 71.5107 29.4068C72.8345 30.6391 73.8529 32.1631 74.4849 33.8577C75.1168 35.5523 75.345 37.3709 75.1514 39.1692C74.9797 40.7632 74.4807 42.3023 73.6882 43.6909C73.5177 43.9896 73.591 44.3732 73.8721 44.5713C74.17 44.7813 74.5843 44.702 74.7663 44.3861C76.013 42.2221 76.6115 39.7397 76.4823 37.2361Z" fill="url(#paint0_linear)"/>
<path d="M20.0687 58.6471C20.423 58.6471 20.7102 58.3599 20.7102 58.0055C20.7102 57.6512 20.423 57.3639 20.0687 57.3639C19.7143 57.3639 19.4271 57.6512 19.4271 58.0055C19.4271 58.3599 19.7143 58.6471 20.0687 58.6471Z" fill="#93BD89"/>
<path d="M20.0687 58.6471C20.423 58.6471 20.7102 58.3599 20.7102 58.0055C20.7102 57.6512 20.423 57.3639 20.0687 57.3639C19.7143 57.3639 19.4271 57.6512 19.4271 58.0055C19.4271 58.3599 19.7143 58.6471 20.0687 58.6471Z" fill="url(#paint1_linear)"/>
<path d="M23.4164 58.6471C23.7707 58.6471 24.058 58.3599 24.058 58.0055C24.058 57.6512 23.7707 57.3639 23.4164 57.3639C23.062 57.3639 22.7748 57.6512 22.7748 58.0055C22.7748 58.3599 23.062 58.6471 23.4164 58.6471Z" fill="#93BD89"/>
<path d="M23.4164 58.6471C23.7707 58.6471 24.058 58.3599 24.058 58.0055C24.058 57.6512 23.7707 57.3639 23.4164 57.3639C23.062 57.3639 22.7748 57.6512 22.7748 58.0055C22.7748 58.3599 23.062 58.6471 23.4164 58.6471Z" fill="url(#paint2_linear)"/>
<path d="M27.217 58.4583C27.4676 58.2077 27.4676 57.8015 27.217 57.5509C26.9665 57.3004 26.5602 57.3004 26.3097 57.5509C26.0591 57.8015 26.0591 58.2077 26.3097 58.4583C26.5602 58.7088 26.9665 58.7088 27.217 58.4583Z" fill="#93BD89"/>
<path d="M27.217 58.4583C27.4676 58.2077 27.4676 57.8015 27.217 57.5509C26.9665 57.3004 26.5602 57.3004 26.3097 57.5509C26.0591 57.8015 26.0591 58.2077 26.3097 58.4583C26.5602 58.7088 26.9665 58.7088 27.217 58.4583Z" fill="url(#paint3_linear)"/>
<path d="M35.6899 57.3639H31.2267C30.8724 57.3639 30.5851 57.6512 30.5851 58.0055C30.5851 58.3599 30.8724 58.6471 31.2267 58.6471H35.6899C36.0443 58.6471 36.3315 58.3599 36.3315 58.0055C36.3315 57.6512 36.0443 57.3639 35.6899 57.3639Z" fill="#93BD89"/>
<path d="M35.6899 57.3639H31.2267C30.8724 57.3639 30.5851 57.6512 30.5851 58.0055C30.5851 58.3599 30.8724 58.6471 31.2267 58.6471H35.6899C36.0443 58.6471 36.3315 58.3599 36.3315 58.0055C36.3315 57.6512 36.0443 57.3639 35.6899 57.3639Z" fill="url(#paint4_linear)"/>
<path d="M20.0687 49.7206C20.423 49.7206 20.7102 49.4334 20.7102 49.079C20.7102 48.7247 20.423 48.4374 20.0687 48.4374C19.7143 48.4374 19.4271 48.7247 19.4271 49.079C19.4271 49.4334 19.7143 49.7206 20.0687 49.7206Z" fill="#93BD89"/>
<path d="M20.0687 49.7206C20.423 49.7206 20.7102 49.4334 20.7102 49.079C20.7102 48.7247 20.423 48.4374 20.0687 48.4374C19.7143 48.4374 19.4271 48.7247 19.4271 49.079C19.4271 49.4334 19.7143 49.7206 20.0687 49.7206Z" fill="url(#paint5_linear)"/>
<path d="M23.4164 49.7206C23.7707 49.7206 24.058 49.4334 24.058 49.079C24.058 48.7247 23.7707 48.4374 23.4164 48.4374C23.062 48.4374 22.7748 48.7247 22.7748 49.079C22.7748 49.4334 23.062 49.7206 23.4164 49.7206Z" fill="#93BD89"/>
<path d="M23.4164 49.7206C23.7707 49.7206 24.058 49.4334 24.058 49.079C24.058 48.7247 23.7707 48.4374 23.4164 48.4374C23.062 48.4374 22.7748 48.7247 22.7748 49.079C22.7748 49.4334 23.062 49.7206 23.4164 49.7206Z" fill="url(#paint6_linear)"/>
<path d="M27.218 49.5325C27.4685 49.2819 27.4685 48.8757 27.218 48.6252C26.9674 48.3746 26.5612 48.3746 26.3106 48.6252C26.0601 48.8757 26.0601 49.2819 26.3106 49.5325C26.5612 49.7831 26.9674 49.7831 27.218 49.5325Z" fill="#93BD89"/>
<path d="M27.218 49.5325C27.4685 49.2819 27.4685 48.8757 27.218 48.6252C26.9674 48.3746 26.5612 48.3746 26.3106 48.6252C26.0601 48.8757 26.0601 49.2819 26.3106 49.5325C26.5612 49.7831 26.9674 49.7831 27.218 49.5325Z" fill="url(#paint7_linear)"/>
<path d="M35.6899 48.4374H31.2267C30.8724 48.4374 30.5851 48.7247 30.5851 49.079C30.5851 49.4334 30.8724 49.7206 31.2267 49.7206H35.6899C36.0443 49.7206 36.3315 49.4334 36.3315 49.079C36.3315 48.7247 36.0443 48.4374 35.6899 48.4374Z" fill="#93BD89"/>
<path d="M35.6899 48.4374H31.2267C30.8724 48.4374 30.5851 48.7247 30.5851 49.079C30.5851 49.4334 30.8724 49.7206 31.2267 49.7206H35.6899C36.0443 49.7206 36.3315 49.4334 36.3315 49.079C36.3315 48.7247 36.0443 48.4374 35.6899 48.4374Z" fill="url(#paint8_linear)"/>
<path d="M36.8039 35.0478H20.0668C19.009 35.0496 17.995 35.4704 17.2467 36.2179C16.4983 36.9655 16.0765 37.979 16.0736 39.0368V41.2684C16.0744 41.8341 16.1962 42.3931 16.4307 42.9079C16.6653 43.4227 17.0072 43.8814 17.4335 44.2532L17.8394 44.6103L17.4335 44.9673C17.0057 45.3404 16.663 45.8009 16.4284 46.3177C16.1938 46.8345 16.0728 47.3957 16.0736 47.9632V50.1949C16.0744 50.7606 16.1962 51.3195 16.4307 51.8343C16.6653 52.3491 17.0072 52.8078 17.4335 53.1796L17.8394 53.5367L17.4335 53.8937C17.0057 54.2668 16.663 54.7273 16.4284 55.2441C16.1938 55.761 16.0728 56.3221 16.0736 56.8897V59.1213C16.0765 60.1783 16.4978 61.1912 17.2452 61.9387C17.9926 62.6861 19.0056 63.1073 20.0626 63.1103H36.7997C37.8567 63.1073 38.8696 62.6861 39.6171 61.9387C40.3645 61.1912 40.7857 60.1783 40.7887 59.1213V56.8897C40.7887 56.3234 40.6678 55.7637 40.434 55.248C40.2002 54.7323 39.8589 54.2725 39.433 53.8993L39.0271 53.5423L39.433 53.1852C39.8589 52.8121 40.2002 52.3523 40.434 51.8365C40.6678 51.3208 40.7887 50.7611 40.7887 50.1949V47.9632C40.7887 47.397 40.6678 46.8373 40.434 46.3216C40.2002 45.8058 39.8589 45.346 39.433 44.9729L39.0271 44.6158L39.433 44.2588C39.8589 43.8856 40.2002 43.4258 40.434 42.9101C40.6678 42.3944 40.7887 41.8347 40.7887 41.2684V39.0368C40.7854 37.9806 40.3646 36.9685 39.6181 36.2213C38.8717 35.474 37.8601 35.0522 36.8039 35.0478ZM39.5055 56.8897V59.1213C39.5033 59.8382 39.2175 60.5252 38.7105 61.0322C38.2036 61.5391 37.5166 61.8249 36.7997 61.8271H20.0626C19.3457 61.8253 18.6586 61.5396 18.1518 61.0325C17.645 60.5254 17.3596 59.8382 17.3582 59.1213V56.8897C17.3596 56.1727 17.645 55.4856 18.1518 54.9785C18.6586 54.4714 19.3457 54.1857 20.0626 54.1839H36.7997C37.5166 54.1861 38.2036 54.4718 38.7105 54.9788C39.2175 55.4858 39.5033 56.1727 39.5055 56.8897ZM39.5055 47.9632V50.1949C39.5033 50.9118 39.2175 51.5988 38.7105 52.1057C38.2036 52.6127 37.5166 52.8985 36.7997 52.9007H20.0626C19.3457 52.8988 18.6586 52.6131 18.1518 52.106C17.645 51.599 17.3596 50.9118 17.3582 50.1949V47.9632C17.3596 47.2463 17.645 46.5591 18.1518 46.0521C18.6586 45.545 19.3457 45.2593 20.0626 45.2574H36.7997C37.5166 45.2596 38.2036 45.5454 38.7105 46.0524C39.2175 46.5593 39.5033 47.2463 39.5055 47.9632ZM39.5055 41.2684C39.5033 41.9854 39.2175 42.6723 38.7105 43.1793C38.2036 43.6862 37.5166 43.972 36.7997 43.9742H20.0626C19.3457 43.9724 18.6586 43.6867 18.1518 43.1796C17.645 42.6725 17.3596 41.9854 17.3582 41.2684V39.0368C17.3596 38.3199 17.645 37.6327 18.1518 37.1256C18.6586 36.6185 19.3457 36.3328 20.0626 36.331H36.7997C37.5166 36.3332 38.2036 36.619 38.7105 37.1259C39.2175 37.6329 39.5033 38.3199 39.5055 39.0368V41.2684Z" fill="#93BD89"/>
<path d="M36.8039 35.0478H20.0668C19.009 35.0496 17.995 35.4704 17.2467 36.2179C16.4983 36.9655 16.0765 37.979 16.0736 39.0368V41.2684C16.0744 41.8341 16.1962 42.3931 16.4307 42.9079C16.6653 43.4227 17.0072 43.8814 17.4335 44.2532L17.8394 44.6103L17.4335 44.9673C17.0057 45.3404 16.663 45.8009 16.4284 46.3177C16.1938 46.8345 16.0728 47.3957 16.0736 47.9632V50.1949C16.0744 50.7606 16.1962 51.3195 16.4307 51.8343C16.6653 52.3491 17.0072 52.8078 17.4335 53.1796L17.8394 53.5367L17.4335 53.8937C17.0057 54.2668 16.663 54.7273 16.4284 55.2441C16.1938 55.761 16.0728 56.3221 16.0736 56.8897V59.1213C16.0765 60.1783 16.4978 61.1912 17.2452 61.9387C17.9926 62.6861 19.0056 63.1073 20.0626 63.1103H36.7997C37.8567 63.1073 38.8696 62.6861 39.6171 61.9387C40.3645 61.1912 40.7857 60.1783 40.7887 59.1213V56.8897C40.7887 56.3234 40.6678 55.7637 40.434 55.248C40.2002 54.7323 39.8589 54.2725 39.433 53.8993L39.0271 53.5423L39.433 53.1852C39.8589 52.8121 40.2002 52.3523 40.434 51.8365C40.6678 51.3208 40.7887 50.7611 40.7887 50.1949V47.9632C40.7887 47.397 40.6678 46.8373 40.434 46.3216C40.2002 45.8058 39.8589 45.346 39.433 44.9729L39.0271 44.6158L39.433 44.2588C39.8589 43.8856 40.2002 43.4258 40.434 42.9101C40.6678 42.3944 40.7887 41.8347 40.7887 41.2684V39.0368C40.7854 37.9806 40.3646 36.9685 39.6181 36.2213C38.8717 35.474 37.8601 35.0522 36.8039 35.0478ZM39.5055 56.8897V59.1213C39.5033 59.8382 39.2175 60.5252 38.7105 61.0322C38.2036 61.5391 37.5166 61.8249 36.7997 61.8271H20.0626C19.3457 61.8253 18.6586 61.5396 18.1518 61.0325C17.645 60.5254 17.3596 59.8382 17.3582 59.1213V56.8897C17.3596 56.1727 17.645 55.4856 18.1518 54.9785C18.6586 54.4714 19.3457 54.1857 20.0626 54.1839H36.7997C37.5166 54.1861 38.2036 54.4718 38.7105 54.9788C39.2175 55.4858 39.5033 56.1727 39.5055 56.8897ZM39.5055 47.9632V50.1949C39.5033 50.9118 39.2175 51.5988 38.7105 52.1057C38.2036 52.6127 37.5166 52.8985 36.7997 52.9007H20.0626C19.3457 52.8988 18.6586 52.6131 18.1518 52.106C17.645 51.599 17.3596 50.9118 17.3582 50.1949V47.9632C17.3596 47.2463 17.645 46.5591 18.1518 46.0521C18.6586 45.545 19.3457 45.2593 20.0626 45.2574H36.7997C37.5166 45.2596 38.2036 45.5454 38.7105 46.0524C39.2175 46.5593 39.5033 47.2463 39.5055 47.9632ZM39.5055 41.2684C39.5033 41.9854 39.2175 42.6723 38.7105 43.1793C38.2036 43.6862 37.5166 43.972 36.7997 43.9742H20.0626C19.3457 43.9724 18.6586 43.6867 18.1518 43.1796C17.645 42.6725 17.3596 41.9854 17.3582 41.2684V39.0368C17.3596 38.3199 17.645 37.6327 18.1518 37.1256C18.6586 36.6185 19.3457 36.3328 20.0626 36.331H36.7997C37.5166 36.3332 38.2036 36.619 38.7105 37.1259C39.2175 37.6329 39.5033 38.3199 39.5055 39.0368V41.2684Z" fill="url(#paint9_linear)"/>
<path d="M20.0687 40.7942C20.423 40.7942 20.7102 40.507 20.7102 40.1526C20.7102 39.7983 20.423 39.5111 20.0687 39.5111C19.7143 39.5111 19.4271 39.7983 19.4271 40.1526C19.4271 40.507 19.7143 40.7942 20.0687 40.7942Z" fill="#93BD89"/>
<path d="M20.0687 40.7942C20.423 40.7942 20.7102 40.507 20.7102 40.1526C20.7102 39.7983 20.423 39.5111 20.0687 39.5111C19.7143 39.5111 19.4271 39.7983 19.4271 40.1526C19.4271 40.507 19.7143 40.7942 20.0687 40.7942Z" fill="url(#paint10_linear)"/>
<path d="M23.4164 40.7942C23.7707 40.7942 24.058 40.507 24.058 40.1526C24.058 39.7983 23.7707 39.5111 23.4164 39.5111C23.062 39.5111 22.7748 39.7983 22.7748 40.1526C22.7748 40.507 23.062 40.7942 23.4164 40.7942Z" fill="#93BD89"/>
<path d="M23.4164 40.7942C23.7707 40.7942 24.058 40.507 24.058 40.1526C24.058 39.7983 23.7707 39.5111 23.4164 39.5111C23.062 39.5111 22.7748 39.7983 22.7748 40.1526C22.7748 40.507 23.062 40.7942 23.4164 40.7942Z" fill="url(#paint11_linear)"/>
<path d="M27.217 40.6054C27.4676 40.3549 27.4676 39.9486 27.217 39.6981C26.9665 39.4475 26.5602 39.4475 26.3097 39.6981C26.0591 39.9486 26.0591 40.3549 26.3097 40.6054C26.5602 40.856 26.9665 40.856 27.217 40.6054Z" fill="#93BD89"/>
<path d="M27.217 40.6054C27.4676 40.3549 27.4676 39.9486 27.217 39.6981C26.9665 39.4475 26.5602 39.4475 26.3097 39.6981C26.0591 39.9486 26.0591 40.3549 26.3097 40.6054C26.5602 40.856 26.9665 40.856 27.217 40.6054Z" fill="url(#paint12_linear)"/>
<path d="M35.6899 39.5111H31.2267C30.8724 39.5111 30.5851 39.7983 30.5851 40.1526C30.5851 40.507 30.8724 40.7942 31.2267 40.7942H35.6899C36.0443 40.7942 36.3315 40.507 36.3315 40.1526C36.3315 39.7983 36.0443 39.5111 35.6899 39.5111Z" fill="#93BD89"/>
<path d="M35.6899 39.5111H31.2267C30.8724 39.5111 30.5851 39.7983 30.5851 40.1526C30.5851 40.507 30.8724 40.7942 31.2267 40.7942H35.6899C36.0443 40.7942 36.3315 40.507 36.3315 40.1526C36.3315 39.7983 36.0443 39.5111 35.6899 39.5111Z" fill="url(#paint13_linear)"/>
<path d="M66.931 40.6268H58.0046C56.9468 40.6287 55.9328 41.0494 55.1845 41.797C54.4361 42.5445 54.0143 43.5581 54.0114 44.6158V51.3107C54.0143 52.3677 54.4355 53.3806 55.183 54.1281C55.9304 54.8755 56.9433 55.2967 58.0004 55.2997H66.9268C67.9839 55.2967 68.9968 54.8755 69.7442 54.1281C70.4917 53.3806 70.9129 52.3677 70.9158 51.3107V44.6158C70.9125 43.5596 70.4918 42.5476 69.7453 41.8003C68.9988 41.0531 67.9872 40.6312 66.931 40.6268ZM69.6326 51.3107C69.6304 52.0276 69.3447 52.7146 68.8377 53.2215C68.3307 53.7285 67.6438 54.0143 66.9268 54.0165H58.0004C57.2834 54.0146 56.5964 53.7289 56.0896 53.2219C55.5828 52.7148 55.2974 52.0276 55.2959 51.3107V44.6158C55.2974 43.8989 55.5828 43.2117 56.0896 42.7046C56.5964 42.1976 57.2834 41.9119 58.0004 41.91H58.1719C58.674 41.908 59.1665 42.0473 59.5932 42.312C60.0199 42.5766 60.3635 42.9559 60.5849 43.4066L60.9656 44.1681C61.2911 44.8321 61.7969 45.391 62.4251 45.781C63.0533 46.1709 63.7787 46.3762 64.5181 46.3732H66.9282C67.6449 46.3758 68.3315 46.6618 68.8382 47.1687C69.3448 47.6756 69.6304 48.3623 69.6326 49.0791V51.3107ZM69.6326 46.0399L68.9199 45.6215C68.3164 45.2733 67.6319 45.0901 66.9352 45.0901H64.5292C64.0272 45.092 63.5346 44.9527 63.108 44.6881C62.6813 44.4235 62.3376 44.0441 62.1163 43.5935L61.7355 42.8319C61.6979 42.7552 61.6546 42.6785 61.6212 42.6213L61.2111 41.91H66.9296C67.6461 41.913 68.3323 42.1991 68.8387 42.7059C69.345 43.2128 69.6304 43.8994 69.6326 44.6158V46.0399Z" fill="#93BD89"/>
<path d="M66.931 40.6268H58.0046C56.9468 40.6287 55.9328 41.0494 55.1845 41.797C54.4361 42.5445 54.0143 43.5581 54.0114 44.6158V51.3107C54.0143 52.3677 54.4355 53.3806 55.183 54.1281C55.9304 54.8755 56.9433 55.2967 58.0004 55.2997H66.9268C67.9839 55.2967 68.9968 54.8755 69.7442 54.1281C70.4917 53.3806 70.9129 52.3677 70.9158 51.3107V44.6158C70.9125 43.5596 70.4918 42.5476 69.7453 41.8003C68.9988 41.0531 67.9872 40.6312 66.931 40.6268ZM69.6326 51.3107C69.6304 52.0276 69.3447 52.7146 68.8377 53.2215C68.3307 53.7285 67.6438 54.0143 66.9268 54.0165H58.0004C57.2834 54.0146 56.5964 53.7289 56.0896 53.2219C55.5828 52.7148 55.2974 52.0276 55.2959 51.3107V44.6158C55.2974 43.8989 55.5828 43.2117 56.0896 42.7046C56.5964 42.1976 57.2834 41.9119 58.0004 41.91H58.1719C58.674 41.908 59.1665 42.0473 59.5932 42.312C60.0199 42.5766 60.3635 42.9559 60.5849 43.4066L60.9656 44.1681C61.2911 44.8321 61.7969 45.391 62.4251 45.781C63.0533 46.1709 63.7787 46.3762 64.5181 46.3732H66.9282C67.6449 46.3758 68.3315 46.6618 68.8382 47.1687C69.3448 47.6756 69.6304 48.3623 69.6326 49.0791V51.3107ZM69.6326 46.0399L68.9199 45.6215C68.3164 45.2733 67.6319 45.0901 66.9352 45.0901H64.5292C64.0272 45.092 63.5346 44.9527 63.108 44.6881C62.6813 44.4235 62.3376 44.0441 62.1163 43.5935L61.7355 42.8319C61.6979 42.7552 61.6546 42.6785 61.6212 42.6213L61.2111 41.91H66.9296C67.6461 41.913 68.3323 42.1991 68.8387 42.7059C69.345 43.2128 69.6304 43.8994 69.6326 44.6158V46.0399Z" fill="url(#paint14_linear)"/>
<path d="M66.931 61.8272H58.0046C56.9468 61.829 55.9328 62.2497 55.1845 62.9973C54.4361 63.7449 54.0143 64.7584 54.0114 65.8162V72.511C54.0143 73.568 54.4355 74.5809 55.183 75.3284C55.9304 76.0758 56.9433 76.4971 58.0004 76.5H66.9268C67.9839 76.4971 68.9968 76.0758 69.7442 75.3284C70.4917 74.5809 70.9129 73.568 70.9158 72.511V65.8162C70.9125 64.76 70.4918 63.7479 69.7453 63.0007C68.9988 62.2534 67.9872 61.8316 66.931 61.8272ZM69.6326 72.511C69.6304 73.228 69.3447 73.9149 68.8377 74.4219C68.3307 74.9288 67.6438 75.2146 66.9268 75.2168H58.0004C57.2834 75.215 56.5964 74.9293 56.0896 74.4222C55.5828 73.9151 55.2974 73.2279 55.2959 72.511V65.8162C55.2974 65.0992 55.5828 64.4121 56.0896 63.905C56.5964 63.3979 57.2834 63.1122 58.0004 63.1103H58.1719C58.674 63.1084 59.1665 63.2477 59.5932 63.5123C60.0199 63.7769 60.3635 64.1563 60.5849 64.6069L60.9656 65.3685C61.2911 66.0324 61.7969 66.5913 62.4251 66.9813C63.0533 67.3713 63.7787 67.5765 64.5181 67.5736H66.9282C67.6449 67.5761 68.3315 67.8621 68.8382 68.369C69.3448 68.8759 69.6304 69.5627 69.6326 70.2794V72.511ZM69.6326 67.2402L68.9199 66.8218C68.3164 66.4737 67.6319 66.2904 66.9352 66.2904H64.5292C64.0272 66.2924 63.5346 66.1531 63.108 65.8884C62.6813 65.6238 62.3376 65.2445 62.1163 64.7938L61.7355 64.0323C61.6979 63.9556 61.6546 63.8789 61.6212 63.8217L61.2111 63.1103H66.9296C67.6461 63.1133 68.3323 63.3994 68.8387 63.9063C69.345 64.4132 69.6304 65.0997 69.6326 65.8162V67.2402Z" fill="#93BD89"/>
<path d="M66.931 61.8272H58.0046C56.9468 61.829 55.9328 62.2497 55.1845 62.9973C54.4361 63.7449 54.0143 64.7584 54.0114 65.8162V72.511C54.0143 73.568 54.4355 74.5809 55.183 75.3284C55.9304 76.0758 56.9433 76.4971 58.0004 76.5H66.9268C67.9839 76.4971 68.9968 76.0758 69.7442 75.3284C70.4917 74.5809 70.9129 73.568 70.9158 72.511V65.8162C70.9125 64.76 70.4918 63.7479 69.7453 63.0007C68.9988 62.2534 67.9872 61.8316 66.931 61.8272ZM69.6326 72.511C69.6304 73.228 69.3447 73.9149 68.8377 74.4219C68.3307 74.9288 67.6438 75.2146 66.9268 75.2168H58.0004C57.2834 75.215 56.5964 74.9293 56.0896 74.4222C55.5828 73.9151 55.2974 73.2279 55.2959 72.511V65.8162C55.2974 65.0992 55.5828 64.4121 56.0896 63.905C56.5964 63.3979 57.2834 63.1122 58.0004 63.1103H58.1719C58.674 63.1084 59.1665 63.2477 59.5932 63.5123C60.0199 63.7769 60.3635 64.1563 60.5849 64.6069L60.9656 65.3685C61.2911 66.0324 61.7969 66.5913 62.4251 66.9813C63.0533 67.3713 63.7787 67.5765 64.5181 67.5736H66.9282C67.6449 67.5761 68.3315 67.8621 68.8382 68.369C69.3448 68.8759 69.6304 69.5627 69.6326 70.2794V72.511ZM69.6326 67.2402L68.9199 66.8218C68.3164 66.4737 67.6319 66.2904 66.9352 66.2904H64.5292C64.0272 66.2924 63.5346 66.1531 63.108 65.8884C62.6813 65.6238 62.3376 65.2445 62.1163 64.7938L61.7355 64.0323C61.6979 63.9556 61.6546 63.8789 61.6212 63.8217L61.2111 63.1103H66.9296C67.6461 63.1133 68.3323 63.3994 68.8387 63.9063C69.345 64.4132 69.6304 65.0997 69.6326 65.8162V67.2402Z" fill="url(#paint15_linear)"/>
<path d="M46.2007 48.6048V70.2793C46.2007 70.3636 46.2173 70.447 46.2496 70.5249C46.2818 70.6027 46.3291 70.6734 46.3886 70.733C46.4482 70.7926 46.519 70.8398 46.5968 70.8721C46.6746 70.9043 46.7581 70.9209 46.8423 70.9209H50.1897C50.5441 70.9209 50.8313 70.6337 50.8313 70.2793C50.8313 69.925 50.5441 69.6377 50.1897 69.6377H47.4839V48.6048H50.1897C50.5441 48.6048 50.8313 48.3176 50.8313 47.9632C50.8313 47.6089 50.5441 47.3216 50.1897 47.3216H43.4949C43.1406 47.3216 42.8533 47.6089 42.8533 47.9632C42.8533 48.3176 43.1406 48.6048 43.4949 48.6048H46.2007Z" fill="#93BD89"/>
<path d="M46.2007 48.6048V70.2793C46.2007 70.3636 46.2173 70.447 46.2496 70.5249C46.2818 70.6027 46.3291 70.6734 46.3886 70.733C46.4482 70.7926 46.519 70.8398 46.5968 70.8721C46.6746 70.9043 46.7581 70.9209 46.8423 70.9209H50.1897C50.5441 70.9209 50.8313 70.6337 50.8313 70.2793C50.8313 69.925 50.5441 69.6377 50.1897 69.6377H47.4839V48.6048H50.1897C50.5441 48.6048 50.8313 48.3176 50.8313 47.9632C50.8313 47.6089 50.5441 47.3216 50.1897 47.3216H43.4949C43.1406 47.3216 42.8533 47.6089 42.8533 47.9632C42.8533 48.3176 43.1406 48.6048 43.4949 48.6048H46.2007Z" fill="url(#paint16_linear)"/>
<path d="M76.4823 37.2361C76.3303 34.3731 75.2298 31.642 73.3542 29.4735C71.4786 27.305 68.9347 25.8224 66.1234 25.2594L65.8361 25.2022L65.7594 24.9232C64.6187 20.8273 62.1884 17.208 58.8289 14.602C55.4062 11.9335 51.1879 10.4892 46.8479 10.5001C43.5664 10.4994 40.3372 11.3222 37.4562 12.8932C34.5751 14.4642 32.1344 16.7331 30.3577 19.4921L30.168 19.7849L29.8319 19.6915C28.9035 19.4341 27.9335 19.3622 26.9774 19.48C26.0212 19.5978 25.0977 19.903 24.2595 20.378C23.4214 20.853 22.6852 21.4886 22.0929 22.2484C21.5006 23.0082 21.0639 23.8773 20.8078 24.8061C20.7897 24.8744 20.7716 24.9455 20.7548 25.0125L20.6851 25.2914L20.4061 25.3598C18.7565 25.755 17.2008 26.4714 15.8281 27.4679C14.4553 28.4645 13.2923 29.7217 12.4054 31.1678C11.5186 32.6139 10.9254 34.2205 10.6596 35.8959C10.3937 37.5713 10.4606 39.2827 10.8562 40.9322C11.2271 42.4703 11.875 43.9259 12.7666 45.2284C12.9724 45.5291 13.3913 45.5763 13.6724 45.3444C13.9381 45.1251 13.9818 44.7362 13.7884 44.4511C12.6918 42.8346 12.018 40.9649 11.8339 39.0136C11.6305 36.8573 12.0331 34.687 12.9964 32.7472C13.9597 30.8074 15.4455 29.175 17.2864 28.034C19.1273 26.8929 21.2502 26.2885 23.416 26.2887C23.7407 26.2887 24.0239 26.0437 24.0531 25.7203L24.0567 25.681C24.0892 25.3219 23.817 25.0065 23.4565 25.0056C23.4439 25.0055 23.4314 25.0055 23.4188 25.0055C23.1901 25.0055 23.0004 25.0055 22.7842 25.0209L22.024 25.0585L22.3253 24.3611C22.8627 23.1167 23.8026 22.0889 24.9942 21.4427C26.1857 20.7964 27.5599 20.5692 28.896 20.7975L29.5223 20.9035L29.2433 21.474C29.1331 21.6974 29.0282 21.9211 28.9287 22.1439C28.7816 22.473 28.9483 22.8539 29.2855 22.9814C29.6105 23.1042 29.9731 22.945 30.1151 22.628C31.7455 18.9881 34.5217 15.9734 38.0285 14.0498C41.7181 12.026 45.9916 11.3332 50.1316 12.0877C54.2716 12.8423 58.0259 14.9983 60.7642 18.1937C63.3665 21.2306 64.9006 25.0304 65.1422 29.0111C65.1633 29.3586 65.4468 29.6361 65.795 29.6361C66.1557 29.6361 66.4467 29.3391 66.4261 28.9791C66.3937 28.4112 66.3364 27.8449 66.2545 27.2818L66.1471 26.5481L66.8585 26.7587C68.594 27.2678 70.1869 28.1745 71.5107 29.4068C72.8345 30.6391 73.8529 32.1631 74.4849 33.8577C75.1168 35.5523 75.345 37.3709 75.1514 39.1692C74.9797 40.7632 74.4807 42.3023 73.6882 43.6909C73.5177 43.9896 73.591 44.3732 73.8721 44.5713C74.17 44.7813 74.5843 44.702 74.7663 44.3861C76.013 42.2221 76.6115 39.7397 76.4823 37.2361Z" stroke="#93BD89" stroke-width="0.408292"/>
<path d="M76.4823 37.2361C76.3303 34.3731 75.2298 31.642 73.3542 29.4735C71.4786 27.305 68.9347 25.8224 66.1234 25.2594L65.8361 25.2022L65.7594 24.9232C64.6187 20.8273 62.1884 17.208 58.8289 14.602C55.4062 11.9335 51.1879 10.4892 46.8479 10.5001C43.5664 10.4994 40.3372 11.3222 37.4562 12.8932C34.5751 14.4642 32.1344 16.7331 30.3577 19.4921L30.168 19.7849L29.8319 19.6915C28.9035 19.4341 27.9335 19.3622 26.9774 19.48C26.0212 19.5978 25.0977 19.903 24.2595 20.378C23.4214 20.853 22.6852 21.4886 22.0929 22.2484C21.5006 23.0082 21.0639 23.8773 20.8078 24.8061C20.7897 24.8744 20.7716 24.9455 20.7548 25.0125L20.6851 25.2914L20.4061 25.3598C18.7565 25.755 17.2008 26.4714 15.8281 27.4679C14.4553 28.4645 13.2923 29.7217 12.4054 31.1678C11.5186 32.6139 10.9254 34.2205 10.6596 35.8959C10.3937 37.5713 10.4606 39.2827 10.8562 40.9322C11.2271 42.4703 11.875 43.9259 12.7666 45.2284C12.9724 45.5291 13.3913 45.5763 13.6724 45.3444C13.9381 45.1251 13.9818 44.7362 13.7884 44.4511C12.6918 42.8346 12.018 40.9649 11.8339 39.0136C11.6305 36.8573 12.0331 34.687 12.9964 32.7472C13.9597 30.8074 15.4455 29.175 17.2864 28.034C19.1273 26.8929 21.2502 26.2885 23.416 26.2887C23.7407 26.2887 24.0239 26.0437 24.0531 25.7203L24.0567 25.681C24.0892 25.3219 23.817 25.0065 23.4565 25.0056C23.4439 25.0055 23.4314 25.0055 23.4188 25.0055C23.1901 25.0055 23.0004 25.0055 22.7842 25.0209L22.024 25.0585L22.3253 24.3611C22.8627 23.1167 23.8026 22.0889 24.9942 21.4427C26.1857 20.7964 27.5599 20.5692 28.896 20.7975L29.5223 20.9035L29.2433 21.474C29.1331 21.6974 29.0282 21.9211 28.9287 22.1439C28.7816 22.473 28.9483 22.8539 29.2855 22.9814C29.6105 23.1042 29.9731 22.945 30.1151 22.628C31.7455 18.9881 34.5217 15.9734 38.0285 14.0498C41.7181 12.026 45.9916 11.3332 50.1316 12.0877C54.2716 12.8423 58.0259 14.9983 60.7642 18.1937C63.3665 21.2306 64.9006 25.0304 65.1422 29.0111C65.1633 29.3586 65.4468 29.6361 65.795 29.6361C66.1557 29.6361 66.4467 29.3391 66.4261 28.9791C66.3937 28.4112 66.3364 27.8449 66.2545 27.2818L66.1471 26.5481L66.8585 26.7587C68.594 27.2678 70.1869 28.1745 71.5107 29.4068C72.8345 30.6391 73.8529 32.1631 74.4849 33.8577C75.1168 35.5523 75.345 37.3709 75.1514 39.1692C74.9797 40.7632 74.4807 42.3023 73.6882 43.6909C73.5177 43.9896 73.591 44.3732 73.8721 44.5713C74.17 44.7813 74.5843 44.702 74.7663 44.3861C76.013 42.2221 76.6115 39.7397 76.4823 37.2361Z" stroke="url(#paint17_linear)" stroke-width="0.408292"/>
<path d="M20.0687 58.6471C20.423 58.6471 20.7102 58.3599 20.7102 58.0055C20.7102 57.6512 20.423 57.3639 20.0687 57.3639C19.7143 57.3639 19.4271 57.6512 19.4271 58.0055C19.4271 58.3599 19.7143 58.6471 20.0687 58.6471Z" stroke="#93BD89" stroke-width="0.408292"/>
<path d="M20.0687 58.6471C20.423 58.6471 20.7102 58.3599 20.7102 58.0055C20.7102 57.6512 20.423 57.3639 20.0687 57.3639C19.7143 57.3639 19.4271 57.6512 19.4271 58.0055C19.4271 58.3599 19.7143 58.6471 20.0687 58.6471Z" stroke="url(#paint18_linear)" stroke-width="0.408292"/>
<path d="M23.4164 58.6471C23.7707 58.6471 24.058 58.3599 24.058 58.0055C24.058 57.6512 23.7707 57.3639 23.4164 57.3639C23.062 57.3639 22.7748 57.6512 22.7748 58.0055C22.7748 58.3599 23.062 58.6471 23.4164 58.6471Z" stroke="#93BD89" stroke-width="0.408292"/>
<path d="M23.4164 58.6471C23.7707 58.6471 24.058 58.3599 24.058 58.0055C24.058 57.6512 23.7707 57.3639 23.4164 57.3639C23.062 57.3639 22.7748 57.6512 22.7748 58.0055C22.7748 58.3599 23.062 58.6471 23.4164 58.6471Z" stroke="url(#paint19_linear)" stroke-width="0.408292"/>
<path d="M27.217 58.4583C27.4676 58.2077 27.4676 57.8015 27.217 57.5509C26.9665 57.3004 26.5602 57.3004 26.3097 57.5509C26.0591 57.8015 26.0591 58.2077 26.3097 58.4583C26.5602 58.7088 26.9665 58.7088 27.217 58.4583Z" stroke="#93BD89" stroke-width="0.408292"/>
<path d="M27.217 58.4583C27.4676 58.2077 27.4676 57.8015 27.217 57.5509C26.9665 57.3004 26.5602 57.3004 26.3097 57.5509C26.0591 57.8015 26.0591 58.2077 26.3097 58.4583C26.5602 58.7088 26.9665 58.7088 27.217 58.4583Z" stroke="url(#paint20_linear)" stroke-width="0.408292"/>
<path d="M35.6899 57.3639H31.2267C30.8724 57.3639 30.5851 57.6512 30.5851 58.0055C30.5851 58.3599 30.8724 58.6471 31.2267 58.6471H35.6899C36.0443 58.6471 36.3315 58.3599 36.3315 58.0055C36.3315 57.6512 36.0443 57.3639 35.6899 57.3639Z" stroke="#93BD89" stroke-width="0.408292"/>
<path d="M35.6899 57.3639H31.2267C30.8724 57.3639 30.5851 57.6512 30.5851 58.0055C30.5851 58.3599 30.8724 58.6471 31.2267 58.6471H35.6899C36.0443 58.6471 36.3315 58.3599 36.3315 58.0055C36.3315 57.6512 36.0443 57.3639 35.6899 57.3639Z" stroke="url(#paint21_linear)" stroke-width="0.408292"/>
<path d="M20.0687 49.7206C20.423 49.7206 20.7102 49.4334 20.7102 49.079C20.7102 48.7247 20.423 48.4374 20.0687 48.4374C19.7143 48.4374 19.4271 48.7247 19.4271 49.079C19.4271 49.4334 19.7143 49.7206 20.0687 49.7206Z" stroke="#93BD89" stroke-width="0.408292"/>
<path d="M20.0687 49.7206C20.423 49.7206 20.7102 49.4334 20.7102 49.079C20.7102 48.7247 20.423 48.4374 20.0687 48.4374C19.7143 48.4374 19.4271 48.7247 19.4271 49.079C19.4271 49.4334 19.7143 49.7206 20.0687 49.7206Z" stroke="url(#paint22_linear)" stroke-width="0.408292"/>
<path d="M23.4164 49.7206C23.7707 49.7206 24.058 49.4334 24.058 49.079C24.058 48.7247 23.7707 48.4374 23.4164 48.4374C23.062 48.4374 22.7748 48.7247 22.7748 49.079C22.7748 49.4334 23.062 49.7206 23.4164 49.7206Z" stroke="#93BD89" stroke-width="0.408292"/>
<path d="M23.4164 49.7206C23.7707 49.7206 24.058 49.4334 24.058 49.079C24.058 48.7247 23.7707 48.4374 23.4164 48.4374C23.062 48.4374 22.7748 48.7247 22.7748 49.079C22.7748 49.4334 23.062 49.7206 23.4164 49.7206Z" stroke="url(#paint23_linear)" stroke-width="0.408292"/>
<path d="M27.218 49.5325C27.4685 49.2819 27.4685 48.8757 27.218 48.6252C26.9674 48.3746 26.5612 48.3746 26.3106 48.6252C26.0601 48.8757 26.0601 49.2819 26.3106 49.5325C26.5612 49.7831 26.9674 49.7831 27.218 49.5325Z" stroke="#93BD89" stroke-width="0.408292"/>
<path d="M27.218 49.5325C27.4685 49.2819 27.4685 48.8757 27.218 48.6252C26.9674 48.3746 26.5612 48.3746 26.3106 48.6252C26.0601 48.8757 26.0601 49.2819 26.3106 49.5325C26.5612 49.7831 26.9674 49.7831 27.218 49.5325Z" stroke="url(#paint24_linear)" stroke-width="0.408292"/>
<path d="M35.6899 48.4374H31.2267C30.8724 48.4374 30.5851 48.7247 30.5851 49.079C30.5851 49.4334 30.8724 49.7206 31.2267 49.7206H35.6899C36.0443 49.7206 36.3315 49.4334 36.3315 49.079C36.3315 48.7247 36.0443 48.4374 35.6899 48.4374Z" stroke="#93BD89" stroke-width="0.408292"/>
<path d="M35.6899 48.4374H31.2267C30.8724 48.4374 30.5851 48.7247 30.5851 49.079C30.5851 49.4334 30.8724 49.7206 31.2267 49.7206H35.6899C36.0443 49.7206 36.3315 49.4334 36.3315 49.079C36.3315 48.7247 36.0443 48.4374 35.6899 48.4374Z" stroke="url(#paint25_linear)" stroke-width="0.408292"/>
<path d="M36.8039 35.0478H20.0668C19.009 35.0496 17.995 35.4704 17.2467 36.2179C16.4983 36.9655 16.0765 37.979 16.0736 39.0368V41.2684C16.0744 41.8341 16.1962 42.3931 16.4307 42.9079C16.6653 43.4227 17.0072 43.8814 17.4335 44.2532L17.8394 44.6103L17.4335 44.9673C17.0057 45.3404 16.663 45.8009 16.4284 46.3177C16.1938 46.8345 16.0728 47.3957 16.0736 47.9632V50.1949C16.0744 50.7606 16.1962 51.3195 16.4307 51.8343C16.6653 52.3491 17.0072 52.8078 17.4335 53.1796L17.8394 53.5367L17.4335 53.8937C17.0057 54.2668 16.663 54.7273 16.4284 55.2441C16.1938 55.761 16.0728 56.3221 16.0736 56.8897V59.1213C16.0765 60.1783 16.4978 61.1912 17.2452 61.9387C17.9926 62.6861 19.0056 63.1073 20.0626 63.1103H36.7997C37.8567 63.1073 38.8696 62.6861 39.6171 61.9387C40.3645 61.1912 40.7857 60.1783 40.7887 59.1213V56.8897C40.7887 56.3234 40.6678 55.7637 40.434 55.248C40.2002 54.7323 39.8589 54.2725 39.433 53.8993L39.0271 53.5423L39.433 53.1852C39.8589 52.8121 40.2002 52.3523 40.434 51.8365C40.6678 51.3208 40.7887 50.7611 40.7887 50.1949V47.9632C40.7887 47.397 40.6678 46.8373 40.434 46.3216C40.2002 45.8058 39.8589 45.346 39.433 44.9729L39.0271 44.6158L39.433 44.2588C39.8589 43.8856 40.2002 43.4258 40.434 42.9101C40.6678 42.3944 40.7887 41.8347 40.7887 41.2684V39.0368C40.7854 37.9806 40.3646 36.9685 39.6181 36.2213C38.8717 35.474 37.8601 35.0522 36.8039 35.0478ZM39.5055 56.8897V59.1213C39.5033 59.8382 39.2175 60.5252 38.7105 61.0322C38.2036 61.5391 37.5166 61.8249 36.7997 61.8271H20.0626C19.3457 61.8253 18.6586 61.5396 18.1518 61.0325C17.645 60.5254 17.3596 59.8382 17.3582 59.1213V56.8897C17.3596 56.1727 17.645 55.4856 18.1518 54.9785C18.6586 54.4714 19.3457 54.1857 20.0626 54.1839H36.7997C37.5166 54.1861 38.2036 54.4718 38.7105 54.9788C39.2175 55.4858 39.5033 56.1727 39.5055 56.8897ZM39.5055 47.9632V50.1949C39.5033 50.9118 39.2175 51.5988 38.7105 52.1057C38.2036 52.6127 37.5166 52.8985 36.7997 52.9007H20.0626C19.3457 52.8988 18.6586 52.6131 18.1518 52.106C17.645 51.599 17.3596 50.9118 17.3582 50.1949V47.9632C17.3596 47.2463 17.645 46.5591 18.1518 46.0521C18.6586 45.545 19.3457 45.2593 20.0626 45.2574H36.7997C37.5166 45.2596 38.2036 45.5454 38.7105 46.0524C39.2175 46.5593 39.5033 47.2463 39.5055 47.9632ZM39.5055 41.2684C39.5033 41.9854 39.2175 42.6723 38.7105 43.1793C38.2036 43.6862 37.5166 43.972 36.7997 43.9742H20.0626C19.3457 43.9724 18.6586 43.6867 18.1518 43.1796C17.645 42.6725 17.3596 41.9854 17.3582 41.2684V39.0368C17.3596 38.3199 17.645 37.6327 18.1518 37.1256C18.6586 36.6185 19.3457 36.3328 20.0626 36.331H36.7997C37.5166 36.3332 38.2036 36.619 38.7105 37.1259C39.2175 37.6329 39.5033 38.3199 39.5055 39.0368V41.2684Z" stroke="#93BD89" stroke-width="0.408292"/>
<path d="M36.8039 35.0478H20.0668C19.009 35.0496 17.995 35.4704 17.2467 36.2179C16.4983 36.9655 16.0765 37.979 16.0736 39.0368V41.2684C16.0744 41.8341 16.1962 42.3931 16.4307 42.9079C16.6653 43.4227 17.0072 43.8814 17.4335 44.2532L17.8394 44.6103L17.4335 44.9673C17.0057 45.3404 16.663 45.8009 16.4284 46.3177C16.1938 46.8345 16.0728 47.3957 16.0736 47.9632V50.1949C16.0744 50.7606 16.1962 51.3195 16.4307 51.8343C16.6653 52.3491 17.0072 52.8078 17.4335 53.1796L17.8394 53.5367L17.4335 53.8937C17.0057 54.2668 16.663 54.7273 16.4284 55.2441C16.1938 55.761 16.0728 56.3221 16.0736 56.8897V59.1213C16.0765 60.1783 16.4978 61.1912 17.2452 61.9387C17.9926 62.6861 19.0056 63.1073 20.0626 63.1103H36.7997C37.8567 63.1073 38.8696 62.6861 39.6171 61.9387C40.3645 61.1912 40.7857 60.1783 40.7887 59.1213V56.8897C40.7887 56.3234 40.6678 55.7637 40.434 55.248C40.2002 54.7323 39.8589 54.2725 39.433 53.8993L39.0271 53.5423L39.433 53.1852C39.8589 52.8121 40.2002 52.3523 40.434 51.8365C40.6678 51.3208 40.7887 50.7611 40.7887 50.1949V47.9632C40.7887 47.397 40.6678 46.8373 40.434 46.3216C40.2002 45.8058 39.8589 45.346 39.433 44.9729L39.0271 44.6158L39.433 44.2588C39.8589 43.8856 40.2002 43.4258 40.434 42.9101C40.6678 42.3944 40.7887 41.8347 40.7887 41.2684V39.0368C40.7854 37.9806 40.3646 36.9685 39.6181 36.2213C38.8717 35.474 37.8601 35.0522 36.8039 35.0478ZM39.5055 56.8897V59.1213C39.5033 59.8382 39.2175 60.5252 38.7105 61.0322C38.2036 61.5391 37.5166 61.8249 36.7997 61.8271H20.0626C19.3457 61.8253 18.6586 61.5396 18.1518 61.0325C17.645 60.5254 17.3596 59.8382 17.3582 59.1213V56.8897C17.3596 56.1727 17.645 55.4856 18.1518 54.9785C18.6586 54.4714 19.3457 54.1857 20.0626 54.1839H36.7997C37.5166 54.1861 38.2036 54.4718 38.7105 54.9788C39.2175 55.4858 39.5033 56.1727 39.5055 56.8897ZM39.5055 47.9632V50.1949C39.5033 50.9118 39.2175 51.5988 38.7105 52.1057C38.2036 52.6127 37.5166 52.8985 36.7997 52.9007H20.0626C19.3457 52.8988 18.6586 52.6131 18.1518 52.106C17.645 51.599 17.3596 50.9118 17.3582 50.1949V47.9632C17.3596 47.2463 17.645 46.5591 18.1518 46.0521C18.6586 45.545 19.3457 45.2593 20.0626 45.2574H36.7997C37.5166 45.2596 38.2036 45.5454 38.7105 46.0524C39.2175 46.5593 39.5033 47.2463 39.5055 47.9632ZM39.5055 41.2684C39.5033 41.9854 39.2175 42.6723 38.7105 43.1793C38.2036 43.6862 37.5166 43.972 36.7997 43.9742H20.0626C19.3457 43.9724 18.6586 43.6867 18.1518 43.1796C17.645 42.6725 17.3596 41.9854 17.3582 41.2684V39.0368C17.3596 38.3199 17.645 37.6327 18.1518 37.1256C18.6586 36.6185 19.3457 36.3328 20.0626 36.331H36.7997C37.5166 36.3332 38.2036 36.619 38.7105 37.1259C39.2175 37.6329 39.5033 38.3199 39.5055 39.0368V41.2684Z" stroke="url(#paint26_linear)" stroke-width="0.408292"/>
<path d="M20.0687 40.7942C20.423 40.7942 20.7102 40.507 20.7102 40.1526C20.7102 39.7983 20.423 39.5111 20.0687 39.5111C19.7143 39.5111 19.4271 39.7983 19.4271 40.1526C19.4271 40.507 19.7143 40.7942 20.0687 40.7942Z" stroke="#93BD89" stroke-width="0.408292"/>
<path d="M20.0687 40.7942C20.423 40.7942 20.7102 40.507 20.7102 40.1526C20.7102 39.7983 20.423 39.5111 20.0687 39.5111C19.7143 39.5111 19.4271 39.7983 19.4271 40.1526C19.4271 40.507 19.7143 40.7942 20.0687 40.7942Z" stroke="url(#paint27_linear)" stroke-width="0.408292"/>
<path d="M23.4164 40.7942C23.7707 40.7942 24.058 40.507 24.058 40.1526C24.058 39.7983 23.7707 39.5111 23.4164 39.5111C23.062 39.5111 22.7748 39.7983 22.7748 40.1526C22.7748 40.507 23.062 40.7942 23.4164 40.7942Z" stroke="#93BD89" stroke-width="0.408292"/>
<path d="M23.4164 40.7942C23.7707 40.7942 24.058 40.507 24.058 40.1526C24.058 39.7983 23.7707 39.5111 23.4164 39.5111C23.062 39.5111 22.7748 39.7983 22.7748 40.1526C22.7748 40.507 23.062 40.7942 23.4164 40.7942Z" stroke="url(#paint28_linear)" stroke-width="0.408292"/>
<path d="M27.217 40.6054C27.4676 40.3549 27.4676 39.9486 27.217 39.6981C26.9665 39.4475 26.5602 39.4475 26.3097 39.6981C26.0591 39.9486 26.0591 40.3549 26.3097 40.6054C26.5602 40.856 26.9665 40.856 27.217 40.6054Z" stroke="#93BD89" stroke-width="0.408292"/>
<path d="M27.217 40.6054C27.4676 40.3549 27.4676 39.9486 27.217 39.6981C26.9665 39.4475 26.5602 39.4475 26.3097 39.6981C26.0591 39.9486 26.0591 40.3549 26.3097 40.6054C26.5602 40.856 26.9665 40.856 27.217 40.6054Z" stroke="url(#paint29_linear)" stroke-width="0.408292"/>
<path d="M35.6899 39.5111H31.2267C30.8724 39.5111 30.5851 39.7983 30.5851 40.1526C30.5851 40.507 30.8724 40.7942 31.2267 40.7942H35.6899C36.0443 40.7942 36.3315 40.507 36.3315 40.1526C36.3315 39.7983 36.0443 39.5111 35.6899 39.5111Z" stroke="#93BD89" stroke-width="0.408292"/>
<path d="M35.6899 39.5111H31.2267C30.8724 39.5111 30.5851 39.7983 30.5851 40.1526C30.5851 40.507 30.8724 40.7942 31.2267 40.7942H35.6899C36.0443 40.7942 36.3315 40.507 36.3315 40.1526C36.3315 39.7983 36.0443 39.5111 35.6899 39.5111Z" stroke="url(#paint30_linear)" stroke-width="0.408292"/>
<path d="M66.931 40.6268H58.0046C56.9468 40.6287 55.9328 41.0494 55.1845 41.797C54.4361 42.5445 54.0143 43.5581 54.0114 44.6158V51.3107C54.0143 52.3677 54.4355 53.3806 55.183 54.1281C55.9304 54.8755 56.9433 55.2967 58.0004 55.2997H66.9268C67.9839 55.2967 68.9968 54.8755 69.7442 54.1281C70.4917 53.3806 70.9129 52.3677 70.9158 51.3107V44.6158C70.9125 43.5596 70.4918 42.5476 69.7453 41.8003C68.9988 41.0531 67.9872 40.6312 66.931 40.6268ZM69.6326 51.3107C69.6304 52.0276 69.3447 52.7146 68.8377 53.2215C68.3307 53.7285 67.6438 54.0143 66.9268 54.0165H58.0004C57.2834 54.0146 56.5964 53.7289 56.0896 53.2219C55.5828 52.7148 55.2974 52.0276 55.2959 51.3107V44.6158C55.2974 43.8989 55.5828 43.2117 56.0896 42.7046C56.5964 42.1976 57.2834 41.9119 58.0004 41.91H58.1719C58.674 41.908 59.1665 42.0473 59.5932 42.312C60.0199 42.5766 60.3635 42.9559 60.5849 43.4066L60.9656 44.1681C61.2911 44.8321 61.7969 45.391 62.4251 45.781C63.0533 46.1709 63.7787 46.3762 64.5181 46.3732H66.9282C67.6449 46.3758 68.3315 46.6618 68.8382 47.1687C69.3448 47.6756 69.6304 48.3623 69.6326 49.0791V51.3107ZM69.6326 46.0399L68.9199 45.6215C68.3164 45.2733 67.6319 45.0901 66.9352 45.0901H64.5292C64.0272 45.092 63.5346 44.9527 63.108 44.6881C62.6813 44.4235 62.3376 44.0441 62.1163 43.5935L61.7355 42.8319C61.6979 42.7552 61.6546 42.6785 61.6212 42.6213L61.2111 41.91H66.9296C67.6461 41.913 68.3323 42.1991 68.8387 42.7059C69.345 43.2128 69.6304 43.8994 69.6326 44.6158V46.0399Z" stroke="#93BD89" stroke-width="0.408292"/>
<path d="M66.931 40.6268H58.0046C56.9468 40.6287 55.9328 41.0494 55.1845 41.797C54.4361 42.5445 54.0143 43.5581 54.0114 44.6158V51.3107C54.0143 52.3677 54.4355 53.3806 55.183 54.1281C55.9304 54.8755 56.9433 55.2967 58.0004 55.2997H66.9268C67.9839 55.2967 68.9968 54.8755 69.7442 54.1281C70.4917 53.3806 70.9129 52.3677 70.9158 51.3107V44.6158C70.9125 43.5596 70.4918 42.5476 69.7453 41.8003C68.9988 41.0531 67.9872 40.6312 66.931 40.6268ZM69.6326 51.3107C69.6304 52.0276 69.3447 52.7146 68.8377 53.2215C68.3307 53.7285 67.6438 54.0143 66.9268 54.0165H58.0004C57.2834 54.0146 56.5964 53.7289 56.0896 53.2219C55.5828 52.7148 55.2974 52.0276 55.2959 51.3107V44.6158C55.2974 43.8989 55.5828 43.2117 56.0896 42.7046C56.5964 42.1976 57.2834 41.9119 58.0004 41.91H58.1719C58.674 41.908 59.1665 42.0473 59.5932 42.312C60.0199 42.5766 60.3635 42.9559 60.5849 43.4066L60.9656 44.1681C61.2911 44.8321 61.7969 45.391 62.4251 45.781C63.0533 46.1709 63.7787 46.3762 64.5181 46.3732H66.9282C67.6449 46.3758 68.3315 46.6618 68.8382 47.1687C69.3448 47.6756 69.6304 48.3623 69.6326 49.0791V51.3107ZM69.6326 46.0399L68.9199 45.6215C68.3164 45.2733 67.6319 45.0901 66.9352 45.0901H64.5292C64.0272 45.092 63.5346 44.9527 63.108 44.6881C62.6813 44.4235 62.3376 44.0441 62.1163 43.5935L61.7355 42.8319C61.6979 42.7552 61.6546 42.6785 61.6212 42.6213L61.2111 41.91H66.9296C67.6461 41.913 68.3323 42.1991 68.8387 42.7059C69.345 43.2128 69.6304 43.8994 69.6326 44.6158V46.0399Z" stroke="url(#paint31_linear)" stroke-width="0.408292"/>
<path d="M66.931 61.8272H58.0046C56.9468 61.829 55.9328 62.2497 55.1845 62.9973C54.4361 63.7449 54.0143 64.7584 54.0114 65.8162V72.511C54.0143 73.568 54.4355 74.5809 55.183 75.3284C55.9304 76.0758 56.9433 76.4971 58.0004 76.5H66.9268C67.9839 76.4971 68.9968 76.0758 69.7442 75.3284C70.4917 74.5809 70.9129 73.568 70.9158 72.511V65.8162C70.9125 64.76 70.4918 63.7479 69.7453 63.0007C68.9988 62.2534 67.9872 61.8316 66.931 61.8272ZM69.6326 72.511C69.6304 73.228 69.3447 73.9149 68.8377 74.4219C68.3307 74.9288 67.6438 75.2146 66.9268 75.2168H58.0004C57.2834 75.215 56.5964 74.9293 56.0896 74.4222C55.5828 73.9151 55.2974 73.2279 55.2959 72.511V65.8162C55.2974 65.0992 55.5828 64.4121 56.0896 63.905C56.5964 63.3979 57.2834 63.1122 58.0004 63.1103H58.1719C58.674 63.1084 59.1665 63.2477 59.5932 63.5123C60.0199 63.7769 60.3635 64.1563 60.5849 64.6069L60.9656 65.3685C61.2911 66.0324 61.7969 66.5913 62.4251 66.9813C63.0533 67.3713 63.7787 67.5765 64.5181 67.5736H66.9282C67.6449 67.5761 68.3315 67.8621 68.8382 68.369C69.3448 68.8759 69.6304 69.5627 69.6326 70.2794V72.511ZM69.6326 67.2402L68.9199 66.8218C68.3164 66.4737 67.6319 66.2904 66.9352 66.2904H64.5292C64.0272 66.2924 63.5346 66.1531 63.108 65.8884C62.6813 65.6238 62.3376 65.2445 62.1163 64.7938L61.7355 64.0323C61.6979 63.9556 61.6546 63.8789 61.6212 63.8217L61.2111 63.1103H66.9296C67.6461 63.1133 68.3323 63.3994 68.8387 63.9063C69.345 64.4132 69.6304 65.0997 69.6326 65.8162V67.2402Z" stroke="#93BD89" stroke-width="0.408292"/>
<path d="M66.931 61.8272H58.0046C56.9468 61.829 55.9328 62.2497 55.1845 62.9973C54.4361 63.7449 54.0143 64.7584 54.0114 65.8162V72.511C54.0143 73.568 54.4355 74.5809 55.183 75.3284C55.9304 76.0758 56.9433 76.4971 58.0004 76.5H66.9268C67.9839 76.4971 68.9968 76.0758 69.7442 75.3284C70.4917 74.5809 70.9129 73.568 70.9158 72.511V65.8162C70.9125 64.76 70.4918 63.7479 69.7453 63.0007C68.9988 62.2534 67.9872 61.8316 66.931 61.8272ZM69.6326 72.511C69.6304 73.228 69.3447 73.9149 68.8377 74.4219C68.3307 74.9288 67.6438 75.2146 66.9268 75.2168H58.0004C57.2834 75.215 56.5964 74.9293 56.0896 74.4222C55.5828 73.9151 55.2974 73.2279 55.2959 72.511V65.8162C55.2974 65.0992 55.5828 64.4121 56.0896 63.905C56.5964 63.3979 57.2834 63.1122 58.0004 63.1103H58.1719C58.674 63.1084 59.1665 63.2477 59.5932 63.5123C60.0199 63.7769 60.3635 64.1563 60.5849 64.6069L60.9656 65.3685C61.2911 66.0324 61.7969 66.5913 62.4251 66.9813C63.0533 67.3713 63.7787 67.5765 64.5181 67.5736H66.9282C67.6449 67.5761 68.3315 67.8621 68.8382 68.369C69.3448 68.8759 69.6304 69.5627 69.6326 70.2794V72.511ZM69.6326 67.2402L68.9199 66.8218C68.3164 66.4737 67.6319 66.2904 66.9352 66.2904H64.5292C64.0272 66.2924 63.5346 66.1531 63.108 65.8884C62.6813 65.6238 62.3376 65.2445 62.1163 64.7938L61.7355 64.0323C61.6979 63.9556 61.6546 63.8789 61.6212 63.8217L61.2111 63.1103H66.9296C67.6461 63.1133 68.3323 63.3994 68.8387 63.9063C69.345 64.4132 69.6304 65.0997 69.6326 65.8162V67.2402Z" stroke="url(#paint32_linear)" stroke-width="0.408292"/>
<path d="M46.2007 48.6048V70.2793C46.2007 70.3636 46.2173 70.447 46.2496 70.5249C46.2818 70.6027 46.3291 70.6734 46.3886 70.733C46.4482 70.7926 46.519 70.8398 46.5968 70.8721C46.6746 70.9043 46.7581 70.9209 46.8423 70.9209H50.1897C50.5441 70.9209 50.8313 70.6337 50.8313 70.2793C50.8313 69.925 50.5441 69.6377 50.1897 69.6377H47.4839V48.6048H50.1897C50.5441 48.6048 50.8313 48.3176 50.8313 47.9632C50.8313 47.6089 50.5441 47.3216 50.1897 47.3216H43.4949C43.1406 47.3216 42.8533 47.6089 42.8533 47.9632C42.8533 48.3176 43.1406 48.6048 43.4949 48.6048H46.2007Z" stroke="#93BD89" stroke-width="0.408292"/>
<path d="M46.2007 48.6048V70.2793C46.2007 70.3636 46.2173 70.447 46.2496 70.5249C46.2818 70.6027 46.3291 70.6734 46.3886 70.733C46.4482 70.7926 46.519 70.8398 46.5968 70.8721C46.6746 70.9043 46.7581 70.9209 46.8423 70.9209H50.1897C50.5441 70.9209 50.8313 70.6337 50.8313 70.2793C50.8313 69.925 50.5441 69.6377 50.1897 69.6377H47.4839V48.6048H50.1897C50.5441 48.6048 50.8313 48.3176 50.8313 47.9632C50.8313 47.6089 50.5441 47.3216 50.1897 47.3216H43.4949C43.1406 47.3216 42.8533 47.6089 42.8533 47.9632C42.8533 48.3176 43.1406 48.6048 43.4949 48.6048H46.2007Z" stroke="url(#paint33_linear)" stroke-width="0.408292"/>
<defs>
<linearGradient id="paint0_linear" x1="18.7571" y1="21.2445" x2="107.205" y2="43.8591" gradientUnits="userSpaceOnUse">
<stop stop-color="#114F5C"/>
<stop offset="1" stop-color="#29362F" stop-opacity="0"/>
</linearGradient>
<linearGradient id="paint1_linear" x1="18.7571" y1="21.2445" x2="107.205" y2="43.8591" gradientUnits="userSpaceOnUse">
<stop stop-color="#114F5C"/>
<stop offset="1" stop-color="#29362F" stop-opacity="0"/>
</linearGradient>
<linearGradient id="paint2_linear" x1="18.7571" y1="21.2445" x2="107.205" y2="43.8591" gradientUnits="userSpaceOnUse">
<stop stop-color="#114F5C"/>
<stop offset="1" stop-color="#29362F" stop-opacity="0"/>
</linearGradient>
<linearGradient id="paint3_linear" x1="18.7571" y1="21.2445" x2="107.205" y2="43.8591" gradientUnits="userSpaceOnUse">
<stop stop-color="#114F5C"/>
<stop offset="1" stop-color="#29362F" stop-opacity="0"/>
</linearGradient>
<linearGradient id="paint4_linear" x1="18.7571" y1="21.2445" x2="107.205" y2="43.8591" gradientUnits="userSpaceOnUse">
<stop stop-color="#114F5C"/>
<stop offset="1" stop-color="#29362F" stop-opacity="0"/>
</linearGradient>
<linearGradient id="paint5_linear" x1="18.7571" y1="21.2445" x2="107.205" y2="43.8591" gradientUnits="userSpaceOnUse">
<stop stop-color="#114F5C"/>
<stop offset="1" stop-color="#29362F" stop-opacity="0"/>
</linearGradient>
<linearGradient id="paint6_linear" x1="18.7571" y1="21.2445" x2="107.205" y2="43.8591" gradientUnits="userSpaceOnUse">
<stop stop-color="#114F5C"/>
<stop offset="1" stop-color="#29362F" stop-opacity="0"/>
</linearGradient>
<linearGradient id="paint7_linear" x1="18.7571" y1="21.2445" x2="107.205" y2="43.8591" gradientUnits="userSpaceOnUse">
<stop stop-color="#114F5C"/>
<stop offset="1" stop-color="#29362F" stop-opacity="0"/>
</linearGradient>
<linearGradient id="paint8_linear" x1="18.7571" y1="21.2445" x2="107.205" y2="43.8591" gradientUnits="userSpaceOnUse">
<stop stop-color="#114F5C"/>
<stop offset="1" stop-color="#29362F" stop-opacity="0"/>
</linearGradient>
<linearGradient id="paint9_linear" x1="18.7571" y1="21.2445" x2="107.205" y2="43.8591" gradientUnits="userSpaceOnUse">
<stop stop-color="#114F5C"/>
<stop offset="1" stop-color="#29362F" stop-opacity="0"/>
</linearGradient>
<linearGradient id="paint10_linear" x1="18.7571" y1="21.2445" x2="107.205" y2="43.8591" gradientUnits="userSpaceOnUse">
<stop stop-color="#114F5C"/>
<stop offset="1" stop-color="#29362F" stop-opacity="0"/>
</linearGradient>
<linearGradient id="paint11_linear" x1="18.7571" y1="21.2445" x2="107.205" y2="43.8591" gradientUnits="userSpaceOnUse">
<stop stop-color="#114F5C"/>
<stop offset="1" stop-color="#29362F" stop-opacity="0"/>
</linearGradient>
<linearGradient id="paint12_linear" x1="18.7571" y1="21.2445" x2="107.205" y2="43.8591" gradientUnits="userSpaceOnUse">
<stop stop-color="#114F5C"/>
<stop offset="1" stop-color="#29362F" stop-opacity="0"/>
</linearGradient>
<linearGradient id="paint13_linear" x1="18.7571" y1="21.2445" x2="107.205" y2="43.8591" gradientUnits="userSpaceOnUse">
<stop stop-color="#114F5C"/>
<stop offset="1" stop-color="#29362F" stop-opacity="0"/>
</linearGradient>
<linearGradient id="paint14_linear" x1="18.7571" y1="21.2445" x2="107.205" y2="43.8591" gradientUnits="userSpaceOnUse">
<stop stop-color="#114F5C"/>
<stop offset="1" stop-color="#29362F" stop-opacity="0"/>
</linearGradient>
<linearGradient id="paint15_linear" x1="18.7571" y1="21.2445" x2="107.205" y2="43.8591" gradientUnits="userSpaceOnUse">
<stop stop-color="#114F5C"/>
<stop offset="1" stop-color="#29362F" stop-opacity="0"/>
</linearGradient>
<linearGradient id="paint16_linear" x1="18.7571" y1="21.2445" x2="107.205" y2="43.8591" gradientUnits="userSpaceOnUse">
<stop stop-color="#114F5C"/>
<stop offset="1" stop-color="#29362F" stop-opacity="0"/>
</linearGradient>
<linearGradient id="paint17_linear" x1="18.7571" y1="21.2445" x2="107.205" y2="43.8591" gradientUnits="userSpaceOnUse">
<stop stop-color="#114F5C"/>
<stop offset="1" stop-color="#29362F" stop-opacity="0"/>
</linearGradient>
<linearGradient id="paint18_linear" x1="18.7571" y1="21.2445" x2="107.205" y2="43.8591" gradientUnits="userSpaceOnUse">
<stop stop-color="#114F5C"/>
<stop offset="1" stop-color="#29362F" stop-opacity="0"/>
</linearGradient>
<linearGradient id="paint19_linear" x1="18.7571" y1="21.2445" x2="107.205" y2="43.8591" gradientUnits="userSpaceOnUse">
<stop stop-color="#114F5C"/>
<stop offset="1" stop-color="#29362F" stop-opacity="0"/>
</linearGradient>
<linearGradient id="paint20_linear" x1="18.7571" y1="21.2445" x2="107.205" y2="43.8591" gradientUnits="userSpaceOnUse">
<stop stop-color="#114F5C"/>
<stop offset="1" stop-color="#29362F" stop-opacity="0"/>
</linearGradient>
<linearGradient id="paint21_linear" x1="18.7571" y1="21.2445" x2="107.205" y2="43.8591" gradientUnits="userSpaceOnUse">
<stop stop-color="#114F5C"/>
<stop offset="1" stop-color="#29362F" stop-opacity="0"/>
</linearGradient>
<linearGradient id="paint22_linear" x1="18.7571" y1="21.2445" x2="107.205" y2="43.8591" gradientUnits="userSpaceOnUse">
<stop stop-color="#114F5C"/>
<stop offset="1" stop-color="#29362F" stop-opacity="0"/>
</linearGradient>
<linearGradient id="paint23_linear" x1="18.7571" y1="21.2445" x2="107.205" y2="43.8591" gradientUnits="userSpaceOnUse">
<stop stop-color="#114F5C"/>
<stop offset="1" stop-color="#29362F" stop-opacity="0"/>
</linearGradient>
<linearGradient id="paint24_linear" x1="18.7571" y1="21.2445" x2="107.205" y2="43.8591" gradientUnits="userSpaceOnUse">
<stop stop-color="#114F5C"/>
<stop offset="1" stop-color="#29362F" stop-opacity="0"/>
</linearGradient>
<linearGradient id="paint25_linear" x1="18.7571" y1="21.2445" x2="107.205" y2="43.8591" gradientUnits="userSpaceOnUse">
<stop stop-color="#114F5C"/>
<stop offset="1" stop-color="#29362F" stop-opacity="0"/>
</linearGradient>
<linearGradient id="paint26_linear" x1="18.7571" y1="21.2445" x2="107.205" y2="43.8591" gradientUnits="userSpaceOnUse">
<stop stop-color="#114F5C"/>
<stop offset="1" stop-color="#29362F" stop-opacity="0"/>
</linearGradient>
<linearGradient id="paint27_linear" x1="18.7571" y1="21.2445" x2="107.205" y2="43.8591" gradientUnits="userSpaceOnUse">
<stop stop-color="#114F5C"/>
<stop offset="1" stop-color="#29362F" stop-opacity="0"/>
</linearGradient>
<linearGradient id="paint28_linear" x1="18.7571" y1="21.2445" x2="107.205" y2="43.8591" gradientUnits="userSpaceOnUse">
<stop stop-color="#114F5C"/>
<stop offset="1" stop-color="#29362F" stop-opacity="0"/>
</linearGradient>
<linearGradient id="paint29_linear" x1="18.7571" y1="21.2445" x2="107.205" y2="43.8591" gradientUnits="userSpaceOnUse">
<stop stop-color="#114F5C"/>
<stop offset="1" stop-color="#29362F" stop-opacity="0"/>
</linearGradient>
<linearGradient id="paint30_linear" x1="18.7571" y1="21.2445" x2="107.205" y2="43.8591" gradientUnits="userSpaceOnUse">
<stop stop-color="#114F5C"/>
<stop offset="1" stop-color="#29362F" stop-opacity="0"/>
</linearGradient>
<linearGradient id="paint31_linear" x1="18.7571" y1="21.2445" x2="107.205" y2="43.8591" gradientUnits="userSpaceOnUse">
<stop stop-color="#114F5C"/>
<stop offset="1" stop-color="#29362F" stop-opacity="0"/>
</linearGradient>
<linearGradient id="paint32_linear" x1="18.7571" y1="21.2445" x2="107.205" y2="43.8591" gradientUnits="userSpaceOnUse">
<stop stop-color="#114F5C"/>
<stop offset="1" stop-color="#29362F" stop-opacity="0"/>
</linearGradient>
<linearGradient id="paint33_linear" x1="18.7571" y1="21.2445" x2="107.205" y2="43.8591" gradientUnits="userSpaceOnUse">
<stop stop-color="#114F5C"/>
<stop offset="1" stop-color="#29362F" stop-opacity="0"/>
</linearGradient>
</defs>
</svg>
